<svg id="svg" version="1.1" xmlns="http://www.w3.org/2000/svg" xmlns:xlink="http://www.w3.org/1999/xlink" width="400" height="400" viewBox="0, 0, 400,400"><g id="svgg"><path id="path0" d="M203.000 160.621 C 192.520 170.002,171.911 178.683,152.400 181.936 C 144.727 183.215,138.335 184.000,135.598 184.000 C 132.271 184.000,132.336 183.749,132.606 195.494 C 133.004 212.825,133.070 212.898,136.824 200.200 C 137.280 198.660,137.820 196.987,138.026 196.481 C 138.232 195.976,138.400 194.237,138.400 192.616 L 138.400 189.670 139.900 189.452 C 140.725 189.331,142.750 189.124,144.400 188.992 C 149.863 188.553,157.874 187.304,163.400 186.031 C 166.734 185.263,167.761 185.005,171.300 184.049 C 182.021 181.150,194.472 174.856,203.078 167.985 C 205.502 166.050,206.229 166.152,205.438 168.317 C 205.140 169.133,204.673 170.610,204.402 171.600 C 204.130 172.590,203.766 173.850,203.594 174.400 C 203.422 174.950,202.873 176.930,202.376 178.800 C 201.113 183.545,201.823 183.200,193.318 183.200 C 184.463 183.200,184.583 182.813,191.629 188.646 C 197.753 193.715,197.470 193.048,196.020 199.000 C 194.017 207.222,193.655 209.015,193.943 209.303 C 194.114 209.474,196.742 207.540,199.784 205.006 C 202.826 202.473,205.542 200.400,205.821 200.400 C 206.223 200.400,210.337 203.446,211.200 204.383 C 211.959 205.207,216.377 208.766,217.152 209.178 C 218.319 209.798,218.313 209.751,215.939 200.078 C 214.756 195.254,214.453 193.419,214.775 193.030 C 215.015 192.740,217.632 190.561,220.589 188.187 C 223.547 185.812,225.873 183.719,225.760 183.535 C 225.646 183.351,222.229 183.200,218.166 183.200 L 210.780 183.200 210.343 182.100 C 210.102 181.495,209.737 180.370,209.530 179.600 C 209.324 178.830,209.001 177.660,208.814 177.000 C 205.633 165.818,205.608 166.193,209.346 169.122 C 216.340 174.602,225.677 179.511,234.996 182.608 C 237.096 183.305,244.720 185.459,246.000 185.717 C 246.550 185.827,248.720 186.292,250.822 186.749 C 255.466 187.760,258.451 188.206,265.961 189.011 C 273.028 189.769,272.395 189.268,272.427 194.124 C 272.448 197.246,272.669 198.855,273.374 201.000 C 274.538 204.539,274.666 204.447,268.767 204.313 L 263.800 204.200 263.086 201.800 C 262.693 200.480,262.177 198.680,261.939 197.800 C 260.500 192.470,260.533 192.438,258.065 201.599 C 257.237 204.674,257.223 204.680,250.867 204.753 C 245.990 204.809,245.995 204.683,250.700 208.568 C 252.735 210.248,254.400 211.854,254.400 212.136 C 254.400 212.418,253.868 214.783,253.219 217.393 C 251.607 223.862,251.627 223.872,256.941 219.427 C 260.787 216.210,260.259 216.184,264.600 219.796 C 269.531 223.898,269.700 223.718,267.593 216.600 C 267.398 215.940,267.127 214.500,266.992 213.400 L 266.746 211.400 270.176 208.655 C 274.589 205.124,274.664 205.124,275.955 208.673 C 276.530 210.253,277.121 211.665,277.270 211.810 C 277.903 212.428,278.200 207.442,278.200 196.200 L 278.200 184.200 276.800 184.113 C 249.530 182.413,224.528 174.000,209.114 161.336 C 205.457 158.331,205.546 158.342,203.000 160.621 M176.206 186.100 C 176.114 186.375,175.471 188.580,174.779 191.000 C 173.264 196.293,173.687 195.986,167.900 195.994 C 162.265 196.001,162.273 195.975,166.777 199.668 C 170.857 203.012,170.830 202.936,169.626 207.845 C 167.826 215.183,167.797 215.154,172.748 211.000 C 177.070 207.374,176.313 207.375,180.630 210.989 C 182.593 212.632,184.428 213.982,184.708 213.989 C 185.261 214.001,185.276 214.119,184.011 208.600 C 183.558 206.620,183.101 204.613,182.996 204.141 C 182.759 203.075,183.370 202.378,187.300 199.231 C 191.298 196.030,191.282 196.000,185.629 196.000 C 180.545 196.000,179.918 195.788,179.412 193.898 C 177.523 186.839,177.127 185.600,176.759 185.600 C 176.548 185.600,176.299 185.825,176.206 186.100 M234.844 187.500 C 232.219 196.898,233.053 196.000,226.951 196.000 C 221.039 196.000,221.056 195.954,225.595 199.663 C 229.960 203.230,229.909 203.063,228.425 208.992 C 226.935 214.943,227.063 215.061,231.223 211.581 C 236.019 207.569,235.317 207.616,239.552 211.025 C 244.636 215.117,244.659 215.101,243.000 208.560 C 241.574 202.941,241.449 203.330,245.811 199.822 C 250.422 196.114,250.381 196.000,244.425 196.000 C 238.636 196.000,239.052 196.353,237.368 190.000 C 236.081 185.145,235.627 184.695,234.844 187.500 M150.086 195.478 C 149.621 196.691,149.123 198.369,148.385 201.200 C 147.374 205.084,147.880 204.800,141.975 204.800 C 135.734 204.800,135.772 204.687,140.631 208.826 C 144.841 212.413,144.730 212.079,143.427 217.246 C 141.676 224.190,141.665 224.180,146.531 220.200 C 150.950 216.585,150.383 216.612,154.244 219.833 C 159.482 224.202,159.492 224.195,157.770 217.318 C 156.462 212.094,156.355 212.416,160.600 208.800 C 165.141 204.931,165.183 205.038,159.032 204.800 L 153.865 204.600 153.381 203.000 C 153.115 202.120,152.671 200.590,152.394 199.600 C 150.913 194.295,150.691 193.898,150.086 195.478 M153.200 255.536 C 143.930 260.721,141.395 263.059,141.440 266.378 C 141.493 270.293,146.328 280.620,152.500 290.000 L 154.211 292.600 169.505 292.705 C 177.917 292.762,184.800 292.668,184.800 292.494 C 184.800 292.321,183.519 290.923,181.953 289.389 C 173.290 280.902,176.118 278.266,191.200 280.767 C 203.775 282.852,207.754 282.853,219.400 280.774 C 223.999 279.953,231.490 279.836,232.607 280.568 C 234.563 281.850,233.163 285.122,228.831 289.389 C 227.274 290.923,226.000 292.318,226.000 292.489 C 226.000 293.174,256.259 292.852,256.832 292.162 C 260.363 287.906,268.337 271.666,269.029 267.319 C 269.623 263.582,266.675 260.614,257.400 255.614 C 256.080 254.903,254.820 254.209,254.600 254.073 C 254.380 253.937,252.400 253.794,250.200 253.755 C 246.628 253.691,244.663 253.913,237.400 255.200 C 223.217 257.713,222.107 257.801,204.800 257.787 C 186.964 257.771,188.728 257.942,168.000 254.225 C 166.130 253.889,162.800 253.619,160.600 253.624 L 156.600 253.634 153.200 255.536 M154.600 266.490 C 155.920 266.823,159.130 267.598,161.733 268.212 C 167.300 269.526,166.889 269.100,169.386 276.137 C 171.449 281.953,171.427 282.185,168.868 281.801 C 163.027 280.925,156.895 276.882,151.471 270.330 C 147.079 265.026,147.373 264.665,154.600 266.490 M262.400 265.920 C 262.400 269.004,251.040 278.767,245.000 280.873 C 239.498 282.792,238.878 282.370,240.586 277.874 C 241.187 276.293,242.135 273.797,242.692 272.327 C 243.891 269.163,243.712 269.260,251.400 267.610 C 252.500 267.374,254.750 266.841,256.400 266.427 C 259.583 265.627,262.400 265.389,262.400 265.920 " stroke="none" fill="#aa7e1b" fill-rule="evenodd"></path><path id="path1" d="M0.000 200.000 L 0.000 400.000 200.000 400.000 L 400.000 400.000 400.000 200.000 L 400.000 0.000 200.000 0.000 L 0.000 0.000 0.000 200.000 M210.064 147.664 C 226.241 161.237,253.015 170.750,282.320 173.339 C 285.833 173.649,288.644 174.083,288.920 174.359 C 289.576 175.015,289.794 197.607,289.228 206.400 C 287.323 236.017,281.499 263.370,271.925 287.655 C 268.715 295.796,268.419 296.211,265.522 296.614 C 263.687 296.870,263.519 296.964,264.279 297.307 C 266.366 298.249,266.243 301.928,264.104 302.542 C 262.931 302.878,262.865 303.002,262.923 304.749 C 262.956 305.767,262.898 306.859,262.792 307.175 C 262.669 307.543,263.142 308.014,264.100 308.479 C 265.807 309.307,266.217 311.455,264.938 312.869 C 263.356 314.617,255.859 313.528,253.838 311.256 C 252.926 310.231,252.000 310.139,252.000 311.074 C 252.000 314.481,242.048 314.617,239.038 311.252 C 238.003 310.095,237.508 310.191,236.800 311.682 C 235.604 314.203,233.133 314.201,232.020 311.678 C 231.148 309.702,227.904 309.891,226.486 312.000 L 225.545 313.400 222.073 313.454 C 217.790 313.520,215.783 312.721,214.193 310.317 C 213.100 308.666,212.421 308.743,212.406 310.520 C 212.386 312.844,211.390 313.543,208.105 313.537 C 204.056 313.530,203.636 313.384,202.950 311.741 C 202.206 309.960,198.317 309.776,198.071 311.510 C 197.665 314.369,184.538 314.547,181.201 311.739 C 177.143 308.325,177.526 301.551,181.936 298.755 C 183.840 297.547,192.400 296.930,192.400 298.000 C 192.400 298.239,190.846 298.400,188.538 298.400 C 184.940 298.400,184.577 298.475,183.238 299.500 L 181.800 300.600 184.200 300.857 C 185.520 300.998,187.891 301.133,189.468 301.157 L 192.336 301.200 192.600 300.000 C 192.871 298.766,193.600 298.329,193.600 299.400 C 193.600 300.277,194.039 300.150,196.010 298.700 C 198.566 296.821,202.247 296.830,204.819 298.722 C 206.687 300.095,207.200 300.269,207.200 299.531 C 207.200 296.460,219.115 296.732,221.576 299.860 L 222.422 300.936 223.711 299.688 C 227.343 296.173,232.496 296.480,235.598 300.398 L 236.949 302.103 238.129 300.632 C 241.250 296.741,250.811 295.753,251.760 299.223 C 251.966 299.980,252.187 300.666,252.249 300.748 C 252.311 300.829,253.110 300.254,254.025 299.471 C 255.724 298.017,258.169 297.225,261.120 297.174 L 262.600 297.149 261.300 296.502 C 259.579 295.645,259.628 295.205,262.048 289.677 C 264.294 284.550,266.130 279.596,265.878 279.345 C 265.790 279.256,263.981 282.129,261.860 285.729 C 259.738 289.328,257.623 292.617,257.159 293.037 C 255.955 294.126,226.060 294.231,224.978 293.150 C 224.098 292.269,224.903 290.693,227.162 288.879 C 228.813 287.552,231.674 283.997,232.125 282.712 C 232.858 280.621,229.252 280.285,220.400 281.619 C 205.227 283.907,204.582 283.915,192.668 281.972 C 177.037 279.422,174.886 280.735,182.360 288.264 C 188.000 293.947,187.881 294.000,169.561 294.000 C 152.918 294.000,153.738 294.183,150.991 289.847 C 148.535 285.971,148.292 286.248,150.170 290.780 C 152.314 295.952,152.225 296.173,147.930 296.315 C 143.567 296.460,143.580 296.472,140.634 289.324 C 129.338 261.916,123.316 229.942,121.984 190.298 C 121.393 172.723,120.796 174.106,129.307 173.348 C 158.465 170.753,186.386 161.077,201.200 148.433 C 205.927 144.398,206.149 144.379,210.064 147.664 M203.197 157.440 C 188.476 169.769,162.180 179.033,135.802 181.183 C 129.684 181.682,130.233 180.663,130.540 190.962 C 131.388 219.389,133.979 240.029,139.147 259.528 C 140.116 263.184,140.136 263.202,141.706 261.742 C 143.726 259.865,145.934 258.260,149.319 256.207 C 152.750 254.128,152.966 253.553,150.475 253.128 C 145.534 252.284,141.655 246.954,144.800 245.328 C 147.886 243.734,152.424 244.743,155.468 247.701 C 157.982 250.143,158.072 250.117,161.041 246.130 C 170.201 233.829,174.165 229.542,177.230 228.620 C 183.263 226.806,226.665 226.789,232.695 228.599 C 235.722 229.508,239.130 233.151,248.158 245.126 C 252.049 250.287,251.924 250.246,254.845 247.355 L 257.224 245.000 260.712 244.886 C 265.055 244.744,266.248 245.243,266.097 247.137 C 265.861 250.072,263.197 252.501,259.525 253.128 C 257.011 253.557,257.252 254.139,260.822 256.261 C 265.215 258.872,268.912 261.984,269.770 263.794 C 270.731 265.819,270.969 265.432,272.598 259.183 C 277.831 239.105,281.184 211.861,281.196 189.324 C 281.201 180.877,281.729 181.667,275.742 181.179 C 250.040 179.084,225.660 170.675,210.161 158.559 C 205.689 155.064,205.979 155.110,203.197 157.440 M209.017 160.031 C 223.768 172.602,246.692 180.508,275.700 183.029 C 279.539 183.363,279.602 183.495,279.590 191.189 C 279.558 211.191,278.328 217.097,275.573 210.482 C 274.032 206.782,274.037 206.784,271.018 209.186 C 267.479 212.002,267.505 211.922,268.624 216.608 C 270.457 224.283,269.685 225.352,265.105 221.484 C 260.150 217.300,260.809 217.385,257.136 220.454 C 251.135 225.469,250.276 224.862,252.247 216.998 C 253.512 211.949,253.650 212.350,249.430 208.825 C 244.210 204.465,244.528 203.600,251.356 203.600 C 256.411 203.600,256.445 203.575,257.789 198.824 C 260.024 190.926,260.986 190.925,263.186 198.819 C 264.537 203.664,264.444 203.586,268.913 203.594 C 273.044 203.601,273.215 203.428,272.152 200.315 C 271.755 199.152,271.333 196.495,271.215 194.411 L 271.000 190.622 269.400 190.354 C 268.520 190.207,265.640 189.872,263.000 189.609 C 256.879 189.000,250.854 187.920,243.867 186.179 C 237.168 184.509,236.639 184.472,237.039 185.700 C 237.200 186.195,237.829 188.288,238.437 190.351 C 239.852 195.153,239.608 194.976,244.998 195.134 C 251.617 195.328,251.873 196.050,246.797 200.203 C 242.628 203.613,242.734 203.330,243.850 208.052 C 245.846 216.498,245.158 217.007,238.877 211.723 C 235.790 209.125,235.569 209.120,232.697 211.578 C 226.463 216.915,225.488 216.445,227.354 209.000 C 228.779 203.313,228.876 203.675,225.102 200.593 C 219.438 195.966,219.480 195.200,225.399 195.200 C 231.836 195.200,231.633 195.342,233.145 189.763 C 233.568 188.203,234.219 186.336,234.593 185.614 C 235.470 183.917,235.298 183.768,230.200 181.811 C 224.306 179.549,217.445 176.015,212.758 172.829 C 207.696 169.388,207.686 169.397,209.452 175.809 C 211.300 182.519,210.435 181.927,218.615 182.075 C 228.731 182.257,228.922 182.660,221.666 188.533 C 214.615 194.240,215.134 192.824,217.126 200.923 C 219.984 212.542,219.643 212.805,211.074 205.583 C 205.336 200.747,206.423 200.704,200.028 206.022 C 192.205 212.527,191.810 212.211,194.397 201.518 C 196.437 193.084,196.674 193.837,190.431 188.885 C 182.563 182.643,182.697 182.254,192.797 182.068 C 201.201 181.913,200.323 182.488,202.174 175.920 C 204.165 168.855,204.123 168.406,201.658 170.349 C 196.894 174.103,188.648 178.633,181.111 181.635 C 176.127 183.621,176.135 183.616,176.874 184.161 C 177.784 184.832,178.229 185.874,179.342 189.938 C 180.719 194.971,180.504 194.800,185.475 194.800 C 192.431 194.800,192.859 195.775,187.770 200.025 C 183.538 203.560,183.682 203.127,184.952 208.522 C 186.785 216.306,186.054 216.811,180.173 211.822 C 176.926 209.067,176.435 209.068,173.200 211.836 C 167.536 216.683,166.630 216.097,168.397 208.725 C 169.692 203.325,169.689 203.315,166.015 200.362 C 160.365 195.822,160.588 195.092,167.718 194.800 L 172.600 194.600 173.338 192.200 C 174.597 188.105,175.470 185.429,175.784 184.700 C 176.208 183.717,175.688 183.778,169.740 185.413 C 162.641 187.365,156.077 188.655,149.434 189.404 C 146.335 189.753,142.909 190.166,141.820 190.320 L 139.840 190.600 139.342 194.000 C 139.069 195.870,138.475 198.463,138.022 199.763 C 136.533 204.042,136.498 204.000,141.551 204.000 C 146.741 204.000,146.446 204.238,148.000 198.800 C 150.022 191.727,151.121 191.643,153.028 198.419 C 154.657 204.204,154.419 204.000,159.533 204.000 C 166.489 204.000,166.829 204.970,161.403 209.343 C 157.473 212.510,157.575 212.131,159.012 218.212 C 160.623 225.030,159.726 225.611,154.400 221.200 C 152.541 219.660,150.831 218.400,150.600 218.400 C 150.369 218.400,148.659 219.660,146.800 221.200 C 141.472 225.613,140.534 225.001,142.177 218.181 C 143.618 212.201,143.699 212.523,140.013 209.561 C 136.156 206.461,136.205 206.465,134.871 209.184 C 132.567 213.882,132.031 212.025,131.588 197.800 C 131.110 182.427,130.710 183.365,137.984 182.770 C 163.740 180.662,188.097 172.035,202.183 160.031 C 203.712 158.727,204.936 158.000,205.600 158.000 C 206.264 158.000,207.488 158.727,209.017 160.031 M201.896 231.831 C 201.289 232.160,198.499 232.701,195.696 233.033 C 182.336 234.613,180.891 235.072,174.733 239.694 C 172.826 241.126,170.846 242.402,170.333 242.532 C 168.973 242.875,163.407 251.189,164.100 251.843 C 164.630 252.343,177.235 254.705,185.600 255.872 C 199.195 257.768,221.299 256.773,238.995 253.469 C 247.217 251.933,247.008 252.309,242.955 246.343 C 234.328 233.647,232.551 232.303,223.448 231.595 C 215.542 230.980,203.216 231.115,201.896 231.831 M150.800 267.365 C 150.800 270.602,163.056 279.899,167.607 280.115 C 169.762 280.217,169.761 280.287,167.736 274.800 C 165.922 269.884,166.442 270.244,158.487 268.397 C 150.686 266.586,150.800 266.601,150.800 267.365 M252.200 268.408 C 243.549 270.407,244.567 269.636,242.358 275.868 C 240.797 280.274,240.819 280.554,242.700 280.235 C 247.028 279.500,254.979 273.848,258.180 269.229 C 259.841 266.832,259.326 266.761,252.200 268.408 M170.469 298.262 C 171.894 299.552,171.322 301.771,169.351 302.594 L 168.000 303.159 168.000 307.757 C 168.000 312.713,167.605 313.600,165.400 313.600 C 163.223 313.600,162.800 312.689,162.800 308.006 C 162.800 303.268,162.454 302.400,160.567 302.400 C 159.637 302.400,159.605 302.481,159.895 304.100 C 160.537 307.679,160.276 312.408,159.400 313.064 C 157.839 314.233,150.422 313.649,148.357 312.195 C 143.254 308.600,143.803 301.154,149.400 298.066 C 150.832 297.276,169.572 297.450,170.469 298.262 M199.200 298.339 C 197.831 298.696,196.400 299.689,196.400 300.282 C 196.400 300.685,205.189 300.923,205.198 300.521 C 205.229 299.196,201.338 297.781,199.200 298.339 M163.300 299.096 C 164.565 299.175,166.635 299.175,167.900 299.096 C 169.165 299.016,168.130 298.951,165.600 298.951 C 163.070 298.951,162.035 299.016,163.300 299.096 M199.181 303.135 C 197.930 304.148,198.496 304.800,200.624 304.800 C 202.576 304.800,202.933 304.207,201.669 303.062 C 200.734 302.216,200.300 302.229,199.181 303.135 M228.300 302.832 C 226.833 303.686,227.442 304.800,229.376 304.800 C 231.490 304.800,231.923 304.323,230.815 303.215 C 229.912 302.312,229.342 302.225,228.300 302.832 M150.667 303.867 C 150.166 304.368,150.399 306.701,151.000 307.200 C 151.520 307.632,151.600 307.425,151.600 305.649 C 151.600 303.746,151.321 303.213,150.667 303.867 M183.980 304.437 C 183.455 305.418,183.796 307.200,184.508 307.200 C 184.819 307.200,185.014 306.537,185.038 305.400 C 185.080 303.457,184.693 303.105,183.980 304.437 M242.157 304.629 C 241.898 305.660,242.621 307.913,243.067 307.466 C 243.197 307.336,243.326 306.413,243.352 305.414 C 243.405 303.401,242.598 302.871,242.157 304.629 " stroke="none" fill="#fbfbfb" fill-rule="evenodd"></path><path id="path2" d="M203.800 167.424 C 202.747 168.319,202.729 168.366,203.653 167.807 C 204.233 167.456,204.863 167.221,205.053 167.284 C 205.244 167.348,205.459 167.225,205.530 167.010 C 205.789 166.232,204.973 166.427,203.800 167.424 M206.406 168.300 C 206.411 169.156,206.498 169.267,206.799 168.800 C 207.138 168.273,207.343 168.286,208.492 168.909 L 209.800 169.618 208.400 168.420 C 206.662 166.933,206.398 166.917,206.406 168.300 M251.800 170.349 C 249.452 170.847,249.935 173.109,252.887 175.446 C 255.500 177.514,265.468 179.539,278.303 180.609 C 281.425 180.869,281.620 180.940,281.866 181.919 C 282.276 183.555,281.674 205.802,280.986 214.400 C 279.961 227.212,280.909 233.792,283.397 231.141 C 283.979 230.521,285.404 226.172,285.803 223.800 C 285.951 222.920,286.217 222.020,286.395 221.800 C 286.572 221.580,286.813 220.500,286.929 219.400 C 287.045 218.300,287.325 215.870,287.550 214.000 C 288.477 206.328,288.838 197.971,288.722 186.885 C 288.585 173.690,288.779 174.422,285.400 174.398 C 281.475 174.371,271.170 172.984,261.728 171.214 C 255.204 169.990,253.991 169.885,251.800 170.349 M154.800 181.200 C 154.008 181.454,153.967 181.520,154.600 181.520 C 155.040 181.520,155.850 181.376,156.400 181.200 C 157.192 180.946,157.233 180.880,156.600 180.880 C 156.160 180.880,155.350 181.024,154.800 181.200 M124.421 183.100 C 124.192 183.925,124.003 185.084,124.002 185.676 C 123.999 187.362,123.270 187.387,123.069 185.708 C 122.740 182.951,123.216 202.106,123.618 207.800 C 124.476 219.958,125.550 228.504,127.992 242.600 C 128.787 247.187,130.588 255.459,131.824 260.200 C 133.504 266.641,134.287 269.289,136.380 275.600 C 142.109 292.878,143.810 296.004,147.482 295.994 C 151.545 295.983,151.535 296.081,148.294 288.400 C 144.466 279.330,143.758 275.992,146.748 281.110 C 149.257 285.408,149.085 284.609,146.399 279.495 C 139.500 266.359,139.579 264.342,147.200 259.231 C 156.011 253.320,158.977 252.606,168.000 254.225 C 188.728 257.942,186.964 257.771,204.800 257.787 C 222.107 257.801,223.217 257.713,237.400 255.200 C 244.665 253.913,246.631 253.691,250.236 253.754 C 253.290 253.807,254.527 253.992,255.322 254.512 C 256.521 255.298,257.334 255.429,256.347 254.677 C 255.987 254.404,255.620 253.825,255.531 253.390 C 255.422 252.856,255.115 252.648,254.585 252.749 C 252.177 253.205,248.726 253.244,248.993 252.811 C 249.281 252.345,248.163 250.800,247.538 250.800 C 247.352 250.800,247.200 251.164,247.200 251.609 C 247.200 252.831,245.171 253.382,233.200 255.416 C 214.390 258.612,192.375 258.375,173.800 254.777 C 172.700 254.564,169.939 254.033,167.664 253.596 C 161.937 252.498,161.874 252.385,164.663 248.185 C 166.098 246.023,166.215 244.800,164.986 244.800 C 164.528 244.800,164.418 244.572,164.600 244.000 C 165.034 242.631,164.553 243.084,161.622 246.800 C 158.168 251.178,157.866 251.234,154.699 248.100 L 152.376 245.800 148.867 245.663 C 141.039 245.358,144.160 251.692,152.368 252.768 C 154.765 253.082,154.825 253.769,152.571 255.091 C 147.519 258.054,143.627 260.848,141.945 262.721 L 140.091 264.785 139.666 263.693 C 138.049 259.531,134.854 245.020,133.437 235.400 C 131.996 225.619,131.405 220.722,130.610 212.000 C 129.035 194.714,128.878 193.323,127.733 186.451 C 127.228 183.420,126.964 182.663,126.354 182.504 C 125.939 182.395,125.600 182.148,125.600 181.953 C 125.600 180.991,124.787 181.781,124.421 183.100 M150.200 182.000 C 149.122 182.274,149.102 182.306,150.000 182.313 C 150.550 182.317,151.450 182.176,152.000 182.000 C 153.344 181.569,151.892 181.569,150.200 182.000 M201.200 181.900 C 201.200 182.138,200.705 182.514,200.100 182.735 C 199.165 183.077,199.127 183.142,199.851 183.168 C 200.745 183.202,201.898 182.164,201.457 181.724 C 201.316 181.582,201.200 181.662,201.200 181.900 M144.600 182.800 L 143.400 183.105 144.600 183.105 C 145.260 183.105,146.340 182.968,147.000 182.800 L 148.200 182.495 147.000 182.495 C 146.340 182.495,145.260 182.632,144.600 182.800 M136.800 183.600 L 134.600 183.870 136.600 183.905 C 137.700 183.925,139.410 183.797,140.400 183.620 L 142.200 183.300 140.600 183.315 C 139.720 183.324,138.010 183.452,136.800 183.600 M272.900 183.876 C 273.285 183.976,273.915 183.976,274.300 183.876 C 274.685 183.775,274.370 183.693,273.600 183.693 C 272.830 183.693,272.515 183.775,272.900 183.876 M132.414 184.774 C 131.949 185.644,131.949 192.285,132.415 199.200 C 132.636 202.466,132.672 201.164,132.542 194.713 C 132.418 188.593,132.500 185.360,132.793 184.813 C 133.032 184.366,133.138 184.000,133.028 184.000 C 132.918 184.000,132.642 184.348,132.414 184.774 M278.560 191.400 C 278.561 194.700,278.622 195.997,278.698 194.282 C 278.773 192.567,278.772 189.867,278.697 188.282 C 278.621 186.697,278.559 188.100,278.560 191.400 M150.000 188.400 C 148.938 188.624,148.841 188.702,149.600 188.724 C 150.150 188.741,151.320 188.605,152.200 188.423 C 153.534 188.147,153.600 188.093,152.600 188.099 C 151.940 188.102,150.770 188.238,150.000 188.400 M142.200 189.200 L 139.800 189.466 141.800 189.503 C 142.900 189.524,144.610 189.397,145.600 189.220 C 147.924 188.807,145.865 188.795,142.200 189.200 M267.505 189.483 C 268.002 189.579,268.722 189.575,269.105 189.475 C 269.487 189.375,269.080 189.296,268.200 189.301 C 267.320 189.305,267.007 189.387,267.505 189.483 M138.470 191.900 C 138.535 194.042,138.551 194.077,138.697 192.408 C 138.784 191.422,139.045 190.387,139.276 190.108 C 139.588 189.733,139.528 189.600,139.049 189.600 C 138.517 189.600,138.413 190.016,138.470 191.900 M271.483 190.055 C 271.748 190.377,272.030 192.161,272.109 194.020 L 272.253 197.400 272.227 193.632 C 272.206 190.654,272.074 189.823,271.600 189.667 C 271.116 189.508,271.093 189.583,271.483 190.055 M172.968 195.192 C 172.760 195.400,170.702 195.629,168.395 195.701 L 164.200 195.831 168.400 195.910 C 172.159 195.980,174.170 195.636,173.562 195.028 C 173.443 194.910,173.176 194.984,172.968 195.192 M180.400 195.582 C 180.730 195.805,181.345 195.991,181.767 195.994 C 182.790 196.002,182.471 195.773,181.000 195.444 C 180.124 195.248,179.962 195.285,180.400 195.582 M273.519 203.311 C 273.405 203.910,273.455 204.400,273.632 204.400 C 274.164 204.400,274.317 203.846,274.014 203.011 C 273.759 202.311,273.704 202.344,273.519 203.311 M256.623 203.833 C 255.974 204.307,255.954 204.400,256.500 204.400 C 256.859 204.400,257.271 204.208,257.416 203.973 C 257.840 203.287,257.461 203.220,256.623 203.833 M135.439 204.643 C 135.050 205.655,135.162 205.990,135.805 205.743 C 136.138 205.615,136.723 205.756,137.105 206.055 C 137.748 206.559,137.755 206.541,137.200 205.802 C 135.959 204.150,135.695 203.976,135.439 204.643 M249.513 204.695 C 250.676 204.776,252.476 204.776,253.513 204.693 C 254.551 204.611,253.600 204.545,251.400 204.546 C 249.200 204.547,248.351 204.614,249.513 204.695 M132.860 208.476 C 132.785 209.826,133.340 210.207,134.055 209.296 C 134.543 208.673,134.530 208.655,133.929 209.125 C 133.340 209.586,133.237 209.513,133.089 208.525 L 132.920 207.400 132.860 208.476 M180.498 231.387 C 176.622 232.618,173.496 235.082,170.754 239.067 C 168.939 241.704,170.016 241.154,173.932 237.443 C 179.373 232.286,182.905 231.200,194.229 231.200 C 197.010 231.200,198.800 231.043,198.800 230.800 C 198.800 229.893,183.673 230.378,180.498 231.387 M241.600 238.976 C 241.600 239.293,241.780 239.664,242.000 239.800 C 242.220 239.936,242.400 240.217,242.400 240.424 C 242.400 241.078,241.352 240.831,240.600 240.000 C 238.861 238.078,239.373 239.490,241.653 242.900 C 244.360 246.948,246.400 249.478,246.400 248.785 C 246.400 247.638,247.476 247.225,248.349 248.038 C 250.216 249.778,248.919 247.641,244.855 242.283 C 241.772 238.218,241.600 238.043,241.600 238.976 M255.460 248.015 C 253.299 250.164,252.842 250.443,251.700 250.311 C 250.245 250.143,250.238 250.150,250.814 251.226 C 251.410 252.340,252.248 252.183,253.561 250.713 L 254.711 249.426 256.056 250.100 C 260.841 252.496,265.579 250.815,265.125 246.880 C 265.001 245.807,264.975 245.799,261.460 245.684 L 257.919 245.568 255.460 248.015 M257.200 255.379 C 257.200 255.489,257.740 255.859,258.400 256.200 C 259.060 256.541,259.600 256.731,259.600 256.621 C 259.600 256.511,259.060 256.141,258.400 255.800 C 257.740 255.459,257.200 255.269,257.200 255.379 M274.700 261.779 C 274.095 262.537,273.600 263.366,273.600 263.621 C 273.600 263.877,273.330 263.982,273.000 263.855 C 272.538 263.678,272.400 263.944,272.400 265.013 C 272.400 265.776,272.249 266.400,272.064 266.400 C 271.879 266.400,271.498 267.165,271.218 268.100 C 270.937 269.035,270.532 270.282,270.317 270.871 C 269.448 273.258,271.700 276.217,273.610 275.195 C 274.697 274.613,276.400 272.261,276.400 271.342 C 276.400 270.912,276.593 270.367,276.828 270.132 C 277.499 269.461,277.518 261.871,276.851 261.064 C 276.100 260.155,275.958 260.202,274.700 261.779 M148.590 265.617 C 148.340 266.020,150.153 269.200,150.633 269.200 C 150.755 269.200,150.465 268.654,149.990 267.986 C 149.514 267.318,149.224 266.514,149.345 266.199 C 149.611 265.507,148.965 265.009,148.590 265.617 M259.900 265.882 C 261.196 266.132,261.017 267.040,259.194 269.454 C 254.011 276.320,242.117 283.241,240.108 280.561 C 239.566 279.839,239.544 279.851,239.669 280.800 C 240.253 285.246,254.640 276.904,260.664 268.626 C 262.803 265.687,262.804 265.587,260.700 265.654 C 259.765 265.684,259.405 265.787,259.900 265.882 M166.048 269.603 C 166.404 269.811,167.103 271.071,167.601 272.404 C 168.627 275.147,169.141 275.467,168.189 272.769 C 167.412 270.566,166.527 269.196,165.891 269.212 C 165.607 269.219,165.673 269.384,166.048 269.603 M151.200 270.125 C 151.200 270.194,151.785 270.779,152.500 271.425 L 153.800 272.600 152.625 271.300 C 151.530 270.088,151.200 269.816,151.200 270.125 M155.400 274.632 C 157.824 276.815,161.600 279.524,161.600 279.080 C 161.600 278.988,160.655 278.274,159.500 277.493 C 158.345 276.712,156.635 275.336,155.699 274.436 C 154.764 273.536,153.864 272.807,153.699 272.815 C 153.535 272.824,154.300 273.641,155.400 274.632 M162.200 279.492 C 163.338 280.656,170.465 282.465,170.933 281.708 C 171.059 281.505,171.051 280.916,170.916 280.399 L 170.670 279.459 170.348 280.329 C 169.834 281.719,168.200 281.520,162.600 279.387 C 162.057 279.180,161.928 279.214,162.200 279.492 M232.100 280.500 C 233.618 281.775,231.556 286.772,228.573 289.048 C 227.802 289.636,226.790 290.676,226.325 291.358 C 225.860 292.041,226.870 291.250,228.570 289.600 C 233.239 285.069,234.613 281.807,232.400 280.502 C 231.526 279.987,231.488 279.987,232.100 280.500 M176.972 281.771 C 176.837 282.305,176.883 283.020,177.073 283.359 C 177.312 283.786,177.418 283.488,177.418 282.388 C 177.418 280.555,177.313 280.410,176.972 281.771 M181.000 288.400 C 182.528 289.940,183.869 291.200,183.979 291.200 C 184.089 291.200,182.928 289.940,181.400 288.400 C 179.872 286.860,178.531 285.600,178.421 285.600 C 178.311 285.600,179.472 286.860,181.000 288.400 M151.549 289.000 C 151.765 289.440,152.234 290.160,152.593 290.600 L 153.244 291.400 152.851 290.600 C 152.635 290.160,152.166 289.440,151.807 289.000 L 151.156 288.200 151.549 289.000 M265.025 289.987 C 264.176 290.420,263.373 290.707,263.241 290.625 C 262.812 290.360,261.075 294.298,261.329 294.959 C 261.522 295.461,262.172 295.600,264.325 295.600 C 267.375 295.600,267.934 295.251,268.743 292.840 C 269.748 289.850,267.970 288.486,265.025 289.987 M256.180 298.955 C 254.791 299.569,252.692 301.877,252.916 302.547 C 253.151 303.252,255.980 303.939,258.600 303.928 C 260.625 303.920,260.794 303.869,259.680 303.605 C 256.894 302.946,257.444 302.370,261.186 302.027 C 264.362 301.736,264.918 301.379,264.731 299.749 L 264.600 298.600 261.000 298.508 C 258.665 298.449,256.971 298.606,256.180 298.955 M248.039 299.235 L 247.079 299.619 248.009 300.610 C 249.614 302.318,251.633 301.594,250.982 299.544 C 250.725 298.732,249.593 298.614,248.039 299.235 M163.021 301.966 C 162.892 302.174,162.993 302.472,163.244 302.627 C 163.564 302.825,163.625 304.003,163.446 306.555 C 163.090 311.625,163.410 312.600,165.429 312.600 L 167.000 312.600 167.119 309.605 C 167.284 305.468,167.086 304.890,165.397 304.573 C 164.192 304.347,164.000 304.155,164.000 303.179 C 164.000 302.007,163.431 301.302,163.021 301.966 M146.194 302.930 C 144.881 304.805,145.733 308.850,147.867 310.875 C 149.542 312.463,150.827 312.800,155.218 312.800 C 159.876 312.800,159.793 312.896,159.534 307.759 C 159.348 304.078,158.893 303.600,155.573 303.600 C 152.244 303.600,150.989 306.226,153.700 307.519 C 155.253 308.260,155.065 308.800,153.254 308.800 C 150.644 308.800,149.473 307.541,149.686 304.967 L 149.861 302.862 148.324 302.472 C 146.967 302.127,146.719 302.181,146.194 302.930 M217.502 303.000 C 217.607 303.550,217.852 304.000,218.047 304.000 C 218.241 304.000,218.400 303.550,218.400 303.000 C 218.400 302.423,218.170 302.000,217.855 302.000 C 217.490 302.000,217.374 302.329,217.502 303.000 M207.200 306.776 C 207.200 310.728,207.651 312.743,208.124 310.906 C 208.384 309.896,208.410 303.932,208.158 303.100 C 207.601 301.259,207.200 302.796,207.200 306.776 M221.867 302.667 C 221.353 303.180,221.585 305.200,222.157 305.200 C 222.769 305.200,223.200 304.359,223.200 303.167 C 223.200 302.423,222.408 302.126,221.867 302.667 M193.108 304.400 C 192.947 304.730,192.767 306.440,192.708 308.200 C 192.582 311.932,193.352 311.691,185.899 310.328 C 180.894 309.413,180.223 309.492,181.436 310.853 C 183.003 312.612,195.691 313.870,196.625 312.359 C 196.747 312.162,196.342 311.997,195.724 311.994 C 193.818 311.983,193.640 311.629,193.516 307.586 C 193.452 305.504,193.269 304.070,193.108 304.400 M236.405 304.900 C 236.414 306.312,236.856 307.613,237.245 307.372 C 237.885 306.977,237.668 304.000,237.000 304.000 C 236.643 304.000,236.402 304.364,236.405 304.900 M203.200 305.000 C 203.200 305.330,203.380 305.600,203.600 305.600 C 203.820 305.600,204.000 305.330,204.000 305.000 C 204.000 304.670,203.820 304.400,203.600 304.400 C 203.380 304.400,203.200 304.670,203.200 305.000 M188.462 307.562 C 188.071 307.803,188.087 307.974,188.534 308.346 C 188.984 308.719,189.155 308.693,189.336 308.223 C 189.615 307.496,189.144 307.140,188.462 307.562 M246.475 307.625 C 246.571 307.914,246.886 308.229,247.175 308.325 C 247.475 308.425,247.625 308.275,247.525 307.975 C 247.429 307.686,247.114 307.371,246.825 307.275 C 246.525 307.175,246.375 307.325,246.475 307.625 M256.875 307.625 C 256.971 307.914,257.286 308.229,257.575 308.325 C 257.875 308.425,258.025 308.275,257.925 307.975 C 257.829 307.686,257.514 307.371,257.225 307.275 C 256.925 307.175,256.775 307.325,256.875 307.625 M221.600 310.176 C 221.600 311.023,222.277 311.297,222.558 310.565 C 222.900 309.673,222.873 309.600,222.200 309.600 C 221.870 309.600,221.600 309.859,221.600 310.176 " stroke="none" fill="#848584" fill-rule="evenodd"></path><path id="path3" d="M204.389 145.877 C 203.845 146.250,202.410 147.400,201.200 148.433 C 186.386 161.077,158.465 170.753,129.307 173.348 C 120.796 174.106,121.393 172.723,121.984 190.298 C 123.316 229.942,129.338 261.916,140.634 289.324 C 143.580 296.472,143.567 296.460,147.930 296.315 C 152.225 296.173,152.314 295.952,150.170 290.780 C 148.292 286.248,148.535 285.971,150.991 289.847 C 153.738 294.183,152.918 294.000,169.561 294.000 C 187.881 294.000,188.000 293.947,182.360 288.264 C 174.886 280.735,177.037 279.422,192.668 281.972 C 204.582 283.915,205.227 283.907,220.400 281.619 C 229.252 280.285,232.858 280.621,232.125 282.712 C 231.674 283.997,228.813 287.552,227.162 288.879 C 224.903 290.693,224.098 292.269,224.978 293.150 C 226.060 294.231,255.955 294.126,257.159 293.037 C 257.623 292.617,259.738 289.328,261.860 285.729 C 263.981 282.129,265.790 279.256,265.878 279.345 C 266.130 279.596,264.294 284.550,262.048 289.677 C 259.628 295.205,259.579 295.645,261.300 296.502 L 262.600 297.149 261.120 297.174 C 258.169 297.225,255.724 298.017,254.025 299.471 C 253.110 300.254,252.311 300.829,252.249 300.748 C 252.187 300.666,251.966 299.980,251.760 299.223 C 250.811 295.753,241.250 296.741,238.129 300.632 L 236.949 302.103 235.598 300.398 C 232.496 296.480,227.343 296.173,223.711 299.688 L 222.422 300.936 221.576 299.860 C 219.115 296.732,207.200 296.460,207.200 299.531 C 207.200 300.269,206.687 300.095,204.819 298.722 C 202.247 296.830,198.566 296.821,196.010 298.700 C 194.039 300.150,193.600 300.277,193.600 299.400 C 193.600 298.329,192.871 298.766,192.600 300.000 L 192.336 301.200 189.468 301.157 C 187.891 301.133,185.520 300.998,184.200 300.857 L 181.800 300.600 183.238 299.500 C 184.577 298.475,184.940 298.400,188.538 298.400 C 190.846 298.400,192.400 298.239,192.400 298.000 C 192.400 296.930,183.840 297.547,181.936 298.755 C 177.526 301.551,177.143 308.325,181.201 311.739 C 184.538 314.547,197.665 314.369,198.071 311.510 C 198.317 309.776,202.206 309.960,202.950 311.741 C 203.636 313.384,204.056 313.530,208.105 313.537 C 211.390 313.543,212.386 312.844,212.406 310.520 C 212.421 308.743,213.100 308.666,214.193 310.317 C 215.783 312.721,217.790 313.520,222.073 313.454 L 225.545 313.400 226.486 312.000 C 227.904 309.891,231.148 309.702,232.020 311.678 C 233.133 314.201,235.604 314.203,236.800 311.682 C 237.508 310.191,238.003 310.095,239.038 311.252 C 242.048 314.617,252.000 314.481,252.000 311.074 C 252.000 310.139,252.926 310.231,253.838 311.256 C 255.859 313.528,263.356 314.617,264.938 312.869 C 266.217 311.455,265.807 309.307,264.100 308.479 C 263.142 308.014,262.669 307.543,262.792 307.175 C 262.898 306.859,262.956 305.767,262.923 304.749 C 262.865 303.002,262.931 302.878,264.104 302.542 C 266.243 301.928,266.366 298.249,264.279 297.307 C 263.519 296.964,263.687 296.870,265.522 296.614 C 268.419 296.211,268.715 295.796,271.925 287.655 C 281.499 263.370,287.323 236.017,289.228 206.400 C 289.794 197.607,289.576 175.015,288.920 174.359 C 288.644 174.083,285.833 173.649,282.320 173.339 C 253.015 170.750,226.241 161.237,210.064 147.664 C 206.970 145.068,206.011 144.766,204.389 145.877 M206.708 154.325 C 206.796 154.589,206.502 154.800,206.046 154.800 C 205.471 154.800,205.296 154.615,205.462 154.183 C 205.724 153.500,206.461 153.584,206.708 154.325 M210.161 158.559 C 225.660 170.675,250.040 179.084,275.742 181.179 C 281.729 181.667,281.201 180.877,281.196 189.324 C 281.184 211.861,277.831 239.105,272.598 259.183 C 270.969 265.432,270.731 265.819,269.770 263.794 C 268.912 261.984,265.215 258.872,260.822 256.261 C 257.252 254.139,257.011 253.557,259.525 253.128 C 263.197 252.501,265.861 250.072,266.097 247.137 C 266.248 245.243,265.055 244.744,260.712 244.886 L 257.224 245.000 254.845 247.355 C 251.924 250.246,252.049 250.287,248.158 245.126 C 239.130 233.151,235.722 229.508,232.695 228.599 C 226.665 226.789,183.263 226.806,177.230 228.620 C 174.165 229.542,170.201 233.829,161.041 246.130 C 158.072 250.117,157.982 250.143,155.468 247.701 C 152.424 244.743,147.886 243.734,144.800 245.328 C 141.655 246.954,145.534 252.284,150.475 253.128 C 152.966 253.553,152.750 254.128,149.319 256.207 C 145.934 258.260,143.726 259.865,141.706 261.742 C 140.136 263.202,140.116 263.184,139.147 259.528 C 133.979 240.029,131.388 219.389,130.540 190.962 C 130.233 180.663,129.684 181.682,135.802 181.183 C 162.180 179.033,188.476 169.769,203.197 157.440 C 205.979 155.110,205.689 155.064,210.161 158.559 M202.183 160.031 C 188.097 172.035,163.740 180.662,137.984 182.770 C 130.710 183.365,131.110 182.427,131.588 197.800 C 132.031 212.025,132.567 213.882,134.871 209.184 C 136.205 206.465,136.156 206.461,140.013 209.561 C 143.699 212.523,143.618 212.201,142.177 218.181 C 140.534 225.001,141.472 225.613,146.800 221.200 C 148.659 219.660,150.369 218.400,150.600 218.400 C 150.831 218.400,152.541 219.660,154.400 221.200 C 159.726 225.611,160.623 225.030,159.012 218.212 C 157.575 212.131,157.473 212.510,161.403 209.343 C 166.829 204.970,166.489 204.000,159.533 204.000 C 154.419 204.000,154.657 204.204,153.028 198.419 C 151.121 191.643,150.022 191.727,148.000 198.800 C 146.446 204.238,146.741 204.000,141.551 204.000 C 136.498 204.000,136.533 204.042,138.022 199.763 C 138.475 198.463,139.069 195.870,139.342 194.000 L 139.840 190.600 141.820 190.320 C 142.909 190.166,146.335 189.753,149.434 189.404 C 156.077 188.655,162.641 187.365,169.740 185.413 C 175.688 183.778,176.208 183.717,175.784 184.700 C 175.470 185.429,174.597 188.105,173.338 192.200 L 172.600 194.600 167.718 194.800 C 160.588 195.092,160.365 195.822,166.015 200.362 C 169.689 203.315,169.692 203.325,168.397 208.725 C 166.630 216.097,167.536 216.683,173.200 211.836 C 176.435 209.068,176.926 209.067,180.173 211.822 C 186.054 216.811,186.785 216.306,184.952 208.522 C 183.682 203.127,183.538 203.560,187.770 200.025 C 192.859 195.775,192.431 194.800,185.475 194.800 C 180.504 194.800,180.719 194.971,179.342 189.938 C 178.229 185.874,177.784 184.832,176.874 184.161 C 176.135 183.616,176.127 183.621,181.111 181.635 C 188.648 178.633,196.894 174.103,201.658 170.349 C 204.123 168.406,204.165 168.855,202.174 175.920 C 200.323 182.488,201.201 181.913,192.797 182.068 C 182.697 182.254,182.563 182.643,190.431 188.885 C 196.674 193.837,196.437 193.084,194.397 201.518 C 191.810 212.211,192.205 212.527,200.028 206.022 C 206.423 200.704,205.336 200.747,211.074 205.583 C 219.643 212.805,219.984 212.542,217.126 200.923 C 215.134 192.824,214.615 194.240,221.666 188.533 C 228.922 182.660,228.731 182.257,218.615 182.075 C 210.435 181.927,211.300 182.519,209.452 175.809 C 207.686 169.397,207.696 169.388,212.758 172.829 C 217.445 176.015,224.306 179.549,230.200 181.811 C 235.298 183.768,235.470 183.917,234.593 185.614 C 234.219 186.336,233.568 188.203,233.145 189.763 C 231.633 195.342,231.836 195.200,225.399 195.200 C 219.480 195.200,219.438 195.966,225.102 200.593 C 228.876 203.675,228.779 203.313,227.354 209.000 C 225.488 216.445,226.463 216.915,232.697 211.578 C 235.569 209.120,235.790 209.125,238.877 211.723 C 245.158 217.007,245.846 216.498,243.850 208.052 C 242.734 203.330,242.628 203.613,246.797 200.203 C 251.873 196.050,251.617 195.328,244.998 195.134 C 239.608 194.976,239.852 195.153,238.437 190.351 C 237.829 188.288,237.200 186.195,237.039 185.700 C 236.639 184.472,237.168 184.509,243.867 186.179 C 250.854 187.920,256.879 189.000,263.000 189.609 C 265.640 189.872,268.520 190.207,269.400 190.354 L 271.000 190.622 271.215 194.411 C 271.333 196.495,271.755 199.152,272.152 200.315 C 273.215 203.428,273.044 203.601,268.913 203.594 C 264.444 203.586,264.537 203.664,263.186 198.819 C 260.986 190.925,260.024 190.926,257.789 198.824 C 256.445 203.575,256.411 203.600,251.356 203.600 C 244.528 203.600,244.210 204.465,249.430 208.825 C 253.650 212.350,253.512 211.949,252.247 216.998 C 250.276 224.862,251.135 225.469,257.136 220.454 C 260.809 217.385,260.150 217.300,265.105 221.484 C 269.685 225.352,270.457 224.283,268.624 216.608 C 267.505 211.922,267.479 212.002,271.018 209.186 C 274.037 206.784,274.032 206.782,275.573 210.482 C 278.328 217.097,279.558 211.191,279.590 191.189 C 279.602 183.495,279.539 183.363,275.700 183.029 C 246.692 180.508,223.768 172.602,209.017 160.031 C 207.488 158.727,206.264 158.000,205.600 158.000 C 204.936 158.000,203.712 158.727,202.183 160.031 M208.876 160.747 C 224.534 173.314,247.928 181.540,273.400 183.436 C 275.380 183.583,277.433 183.867,277.963 184.066 L 278.926 184.428 278.688 197.123 C 278.400 212.479,277.851 214.789,275.796 209.294 C 274.437 205.659,274.251 205.644,270.252 208.836 C 266.711 211.662,266.685 211.761,268.000 217.400 C 268.787 220.776,269.007 222.800,268.586 222.800 C 268.163 222.800,266.160 221.390,264.000 219.572 C 260.563 216.678,260.294 216.686,256.600 219.789 C 251.643 223.953,251.420 223.716,253.269 216.231 C 254.280 212.140,254.118 211.650,250.896 209.063 C 245.228 204.513,245.264 204.326,251.870 204.073 C 257.179 203.870,257.098 203.928,258.349 199.400 C 260.366 192.104,260.397 192.115,263.078 200.991 C 263.977 203.968,264.708 204.386,269.024 204.394 C 273.717 204.403,274.040 204.078,272.891 200.510 C 272.263 198.559,271.998 196.750,271.994 194.372 C 271.986 189.911,271.954 189.875,267.720 189.530 C 246.056 187.763,227.062 181.763,213.088 172.272 C 206.159 167.565,206.410 167.347,208.799 176.006 C 210.783 183.194,210.258 182.800,217.850 182.800 C 227.592 182.800,227.567 182.742,220.385 188.612 C 214.161 193.700,214.379 193.008,216.382 201.281 C 218.787 211.213,218.933 211.110,211.373 204.812 C 205.973 200.312,205.723 200.235,203.282 202.289 C 198.293 206.488,194.252 209.556,193.955 209.372 C 193.549 209.121,193.718 208.147,195.468 200.643 C 197.217 193.146,197.377 193.620,191.495 188.876 C 183.785 182.657,183.740 182.815,193.224 182.806 C 201.116 182.799,200.876 182.917,202.174 178.400 C 205.648 166.317,205.686 166.473,200.263 170.564 C 195.196 174.385,186.684 179.024,180.800 181.170 C 180.030 181.451,179.040 181.824,178.600 182.000 C 170.182 185.359,150.014 189.583,142.284 189.606 C 139.310 189.615,139.078 189.868,138.743 193.475 C 138.583 195.194,137.990 198.020,137.426 199.756 C 136.862 201.491,136.400 203.351,136.400 203.888 L 136.400 204.865 141.433 204.733 C 147.076 204.584,147.237 204.503,148.030 201.412 C 150.238 192.800,150.850 192.618,152.769 200.000 C 153.973 204.630,154.214 204.800,159.578 204.800 C 165.450 204.800,165.528 205.217,160.401 209.200 C 156.964 211.870,156.834 212.291,157.937 217.182 C 159.479 224.021,159.091 224.314,154.179 220.016 C 150.634 216.914,150.871 216.879,145.213 221.342 C 141.871 223.979,141.925 224.203,143.676 214.927 C 144.235 211.971,144.350 212.157,139.623 208.350 C 136.410 205.762,135.200 205.353,135.200 206.853 C 135.200 207.680,133.461 210.821,133.168 210.524 C 132.701 210.052,132.000 198.420,132.000 191.135 C 132.000 183.529,131.818 183.817,136.869 183.445 C 163.571 181.481,187.870 172.944,203.115 160.172 C 205.736 157.976,205.380 157.941,208.876 160.747 M220.720 160.300 C 221.183 160.685,222.467 161.540,223.573 162.200 C 224.680 162.860,225.588 163.535,225.592 163.700 C 225.597 163.865,225.915 164.007,226.300 164.016 C 226.685 164.025,227.630 164.585,228.400 165.260 L 229.800 166.488 228.347 166.235 C 225.340 165.710,217.600 161.159,217.600 159.915 C 217.600 159.320,219.878 159.600,220.720 160.300 M252.076 168.814 C 263.090 171.530,271.126 172.878,283.800 174.137 L 288.600 174.614 288.730 189.207 C 288.809 198.092,288.680 205.834,288.399 209.000 C 287.825 215.463,286.512 226.343,285.956 229.232 C 285.727 230.424,285.399 232.390,285.228 233.600 C 285.057 234.810,284.891 235.575,284.859 235.300 C 284.767 234.517,284.000 234.715,284.000 235.521 C 284.000 236.854,281.972 240.400,281.211 240.400 C 280.310 240.400,280.013 239.320,280.003 236.000 C 279.999 234.570,279.806 232.716,279.573 231.880 C 279.282 230.830,279.276 229.220,279.554 226.680 C 280.872 214.619,281.534 204.758,281.841 192.580 C 282.146 180.475,282.235 180.800,278.600 180.800 C 275.616 180.800,265.821 179.544,260.800 178.517 C 253.256 176.975,250.828 176.369,250.580 175.968 C 250.455 175.765,249.778 175.586,249.076 175.568 C 248.374 175.551,248.025 175.446,248.300 175.335 C 249.131 175.000,248.868 174.525,247.547 173.978 C 243.559 172.326,242.449 168.821,245.900 168.775 C 247.444 168.754,247.631 168.681,246.900 168.388 C 246.405 168.189,246.000 167.930,246.000 167.813 C 246.000 167.411,247.161 167.602,252.076 168.814 M145.100 172.676 C 144.715 172.776,144.085 172.776,143.700 172.676 C 143.315 172.575,143.630 172.493,144.400 172.493 C 145.170 172.493,145.485 172.575,145.100 172.676 M140.505 173.482 C 140.014 173.577,139.114 173.579,138.505 173.487 C 137.897 173.395,138.300 173.317,139.400 173.314 C 140.500 173.311,140.997 173.387,140.505 173.482 M135.200 174.000 C 135.887 174.220,135.166 174.333,132.900 174.360 C 131.085 174.382,129.600 174.556,129.600 174.746 C 129.600 175.256,132.761 175.600,137.442 175.600 C 141.090 175.600,141.619 175.689,141.979 176.360 C 142.580 177.483,140.440 178.192,134.600 178.802 C 132.840 178.986,131.265 179.151,131.100 179.168 C 129.424 179.346,131.487 180.018,133.900 180.080 L 137.000 180.161 133.955 180.296 C 131.322 180.413,130.783 180.567,129.972 181.429 L 129.035 182.427 129.740 195.514 C 130.128 202.711,130.617 210.310,130.827 212.400 C 131.038 214.490,131.398 218.090,131.629 220.400 C 132.832 232.462,135.881 249.573,138.749 260.346 C 139.817 264.361,140.092 264.550,141.911 262.520 C 143.709 260.513,147.788 257.524,150.824 255.989 C 154.791 253.984,154.879 253.110,151.159 252.670 C 147.221 252.203,144.724 250.130,144.642 247.256 L 144.600 245.800 148.470 245.686 L 152.341 245.572 154.955 248.018 C 158.171 251.026,158.240 251.010,161.585 246.492 C 166.953 239.243,173.905 230.971,174.298 231.365 C 174.398 231.465,173.877 232.166,173.140 232.923 C 171.712 234.391,169.376 237.501,168.173 239.538 C 166.847 241.782,168.390 241.681,169.933 239.421 C 174.476 232.766,178.957 230.566,188.697 230.211 C 204.044 229.650,208.000 229.606,208.000 229.995 C 208.000 230.236,206.653 230.400,204.680 230.400 C 202.854 230.400,201.174 230.586,200.948 230.812 C 200.721 231.039,198.210 231.305,195.368 231.403 C 180.659 231.911,177.936 232.841,172.875 239.086 C 171.933 240.249,170.934 241.200,170.656 241.200 C 169.398 241.200,163.063 250.230,163.275 251.722 C 163.418 252.724,164.716 253.042,177.400 255.176 C 195.841 258.280,214.523 258.338,232.000 255.347 C 249.703 252.317,248.558 253.417,242.798 244.975 C 236.628 235.933,233.833 232.986,230.200 231.691 L 229.000 231.263 230.076 231.232 C 230.668 231.214,231.264 231.380,231.400 231.600 C 231.536 231.820,231.982 232.000,232.391 232.000 C 232.801 232.000,234.095 232.858,235.268 233.907 C 236.440 234.955,237.743 236.080,238.162 236.407 C 239.695 237.601,237.659 234.444,235.375 232.086 C 234.186 230.858,233.290 229.777,233.383 229.683 C 234.086 228.981,240.303 235.769,246.130 243.600 C 251.110 250.292,251.201 250.400,251.896 250.400 C 252.246 250.400,253.657 249.320,255.031 248.000 L 257.531 245.600 261.378 245.600 C 265.542 245.600,265.935 245.812,265.437 247.794 C 264.783 250.400,261.574 252.429,257.403 252.873 C 255.193 253.108,255.802 254.095,259.491 256.254 C 269.014 261.828,270.691 264.176,269.038 269.622 C 268.135 272.596,262.819 283.181,260.164 287.291 C 259.634 288.112,259.200 288.881,259.200 289.000 C 259.200 289.665,257.021 292.353,256.166 292.743 C 254.539 293.484,226.246 293.378,225.623 292.628 C 225.237 292.163,225.666 291.511,227.924 289.128 C 236.675 279.894,234.789 278.664,216.400 281.614 C 208.010 282.960,202.732 282.961,194.400 281.616 C 175.707 278.600,173.376 280.045,182.280 289.126 C 184.880 291.778,185.255 292.540,184.167 292.957 C 183.348 293.271,156.476 293.275,154.906 292.961 C 153.872 292.754,149.600 287.317,149.600 286.208 C 149.600 285.679,145.814 280.359,145.694 280.719 C 145.539 281.182,147.413 286.186,149.679 291.362 C 151.667 295.902,151.624 296.000,147.645 296.000 C 144.488 296.000,144.459 295.991,143.666 294.700 C 141.689 291.483,135.622 274.871,133.331 266.400 C 129.233 251.248,126.979 239.861,125.215 225.400 C 124.973 223.420,124.610 220.450,124.407 218.800 C 122.409 202.539,121.815 175.247,123.474 175.884 C 123.882 176.040,124.021 175.880,123.930 175.354 C 123.812 174.670,124.190 174.572,128.000 174.300 C 130.310 174.135,132.380 173.924,132.600 173.832 C 133.192 173.582,134.075 173.640,135.200 174.000 M237.544 189.800 C 239.234 195.879,238.710 195.459,244.926 195.724 C 250.310 195.953,250.359 196.136,246.038 199.811 C 241.860 203.365,241.893 203.261,243.203 208.725 C 244.690 214.929,244.306 215.224,239.724 211.400 C 235.989 208.282,235.523 208.238,232.521 210.716 C 226.704 215.517,226.591 215.437,228.464 207.851 C 229.509 203.620,229.312 203.025,225.999 200.443 C 220.318 196.014,220.345 195.851,226.809 195.659 C 232.216 195.497,232.368 195.414,233.189 192.200 C 235.253 184.110,235.869 183.771,237.544 189.800 M178.668 190.159 C 180.274 195.610,179.967 195.362,185.388 195.600 C 191.619 195.874,191.624 195.894,186.516 200.069 C 183.035 202.913,182.920 203.260,183.943 207.835 C 185.638 215.421,185.619 215.433,179.928 210.576 C 177.148 208.202,176.177 208.226,173.254 210.738 C 167.850 215.383,167.646 215.129,169.753 206.391 C 170.468 203.427,170.224 202.961,166.208 199.607 C 161.875 195.987,161.925 195.849,167.673 195.600 C 172.846 195.376,173.246 195.191,173.960 192.705 C 176.482 183.924,176.784 183.761,178.668 190.159 M223.400 228.366 C 224.956 228.579,220.525 228.711,210.800 228.741 C 202.550 228.767,195.585 228.651,195.322 228.484 C 194.664 228.065,220.423 227.957,223.400 228.366 M187.905 228.675 C 187.522 228.775,186.802 228.779,186.305 228.683 C 185.807 228.587,186.120 228.505,187.000 228.501 C 187.880 228.496,188.287 228.575,187.905 228.675 M180.600 229.200 C 180.464 229.420,179.688 229.597,178.876 229.594 C 177.776 229.589,177.553 229.489,178.000 229.200 C 178.798 228.684,180.919 228.684,180.600 229.200 M232.400 229.200 C 232.830 229.478,232.403 229.589,230.900 229.594 C 229.745 229.597,228.800 229.420,228.800 229.200 C 228.800 228.688,231.608 228.688,232.400 229.200 M227.600 230.775 C 227.600 230.982,226.931 231.046,226.100 230.918 C 224.023 230.598,223.959 230.400,225.933 230.400 C 226.850 230.400,227.600 230.569,227.600 230.775 M223.448 231.595 C 232.551 232.303,234.328 233.647,242.955 246.343 C 247.008 252.309,247.217 251.933,238.995 253.469 C 221.299 256.773,199.195 257.768,185.600 255.872 C 177.235 254.705,164.630 252.343,164.100 251.843 C 163.407 251.189,168.973 242.875,170.333 242.532 C 170.846 242.402,172.826 241.126,174.733 239.694 C 180.891 235.072,182.336 234.613,195.696 233.033 C 198.499 232.701,201.289 232.160,201.896 231.831 C 203.216 231.115,215.542 230.980,223.448 231.595 M279.082 234.500 C 278.987 234.995,278.909 234.590,278.909 233.600 C 278.909 232.610,278.987 232.205,279.082 232.700 C 279.178 233.195,279.178 234.005,279.082 234.500 M278.276 238.700 C 278.175 239.085,278.093 238.770,278.093 238.000 C 278.093 237.230,278.175 236.915,278.276 237.300 C 278.376 237.685,278.376 238.315,278.276 238.700 M277.482 243.700 C 277.387 244.195,277.309 243.790,277.309 242.800 C 277.309 241.810,277.387 241.405,277.482 241.900 C 277.578 242.395,277.578 243.205,277.482 243.700 M280.028 245.033 C 280.373 245.449,280.544 246.788,280.526 248.933 C 280.473 255.372,280.238 259.280,279.948 258.542 C 279.759 258.060,279.646 258.465,279.628 259.695 C 279.586 262.507,276.026 275.689,275.165 276.222 C 274.964 276.346,274.797 276.842,274.794 277.324 C 274.789 277.964,274.696 278.055,274.446 277.660 C 274.185 277.249,273.726 277.525,272.524 278.813 C 270.450 281.036,269.156 280.657,269.412 277.900 C 269.552 276.393,269.508 276.282,269.023 276.924 C 268.278 277.911,267.805 277.076,268.315 275.676 C 268.531 275.084,268.931 273.790,269.206 272.800 C 269.480 271.810,270.145 269.740,270.684 268.200 C 272.239 263.756,273.568 258.956,275.003 252.600 C 275.351 251.060,275.802 249.440,276.005 249.000 C 276.209 248.560,276.435 247.570,276.508 246.800 C 276.640 245.413,276.645 245.409,277.095 246.400 C 277.471 247.227,277.554 247.267,277.575 246.631 C 277.629 244.991,279.163 243.991,280.028 245.033 M149.601 266.500 C 149.611 269.686,159.580 278.289,165.534 280.251 C 170.641 281.933,170.813 281.605,168.350 274.875 C 166.283 269.226,166.953 269.688,157.800 267.600 C 156.920 267.399,155.018 266.957,153.574 266.618 C 150.393 265.869,149.600 265.846,149.601 266.500 M254.400 267.213 C 252.750 267.623,250.500 268.155,249.400 268.396 C 243.902 269.599,244.043 269.486,242.349 274.043 C 239.676 281.237,239.725 281.540,243.402 280.583 C 247.506 279.514,250.995 277.334,255.220 273.200 C 262.213 266.357,262.070 265.309,254.400 267.213 M158.487 268.397 C 166.442 270.244,165.922 269.884,167.736 274.800 C 169.761 280.287,169.762 280.217,167.607 280.115 C 163.810 279.935,157.192 275.580,152.888 270.429 C 149.399 266.254,149.343 266.274,158.487 268.397 M258.180 269.229 C 254.979 273.848,247.028 279.500,242.700 280.235 C 240.819 280.554,240.797 280.274,242.358 275.868 C 244.567 269.636,243.549 270.407,252.200 268.408 C 259.326 266.761,259.841 266.832,258.180 269.229 M267.835 279.098 C 267.405 279.528,267.177 278.926,267.479 278.157 C 267.762 277.436,267.783 277.435,267.924 278.131 C 268.004 278.534,267.965 278.969,267.835 279.098 M265.600 285.080 C 265.600 285.823,265.471 286.031,265.187 285.747 C 264.960 285.520,264.889 285.034,265.030 284.667 C 265.400 283.701,265.600 283.846,265.600 285.080 M269.120 285.280 C 269.384 285.544,269.600 286.318,269.600 287.000 C 269.600 287.682,269.811 288.451,270.068 288.708 C 270.680 289.320,268.609 294.608,267.435 295.430 C 265.805 296.572,260.800 296.099,260.800 294.804 C 260.800 293.255,264.600 285.994,265.043 286.696 C 265.409 287.276,265.576 287.201,266.405 286.078 C 267.395 284.740,268.311 284.471,269.120 285.280 M149.400 298.066 C 143.803 301.154,143.254 308.600,148.357 312.195 C 150.422 313.649,157.839 314.233,159.400 313.064 C 160.276 312.408,160.537 307.679,159.895 304.100 C 159.605 302.481,159.637 302.400,160.567 302.400 C 162.454 302.400,162.800 303.268,162.800 308.006 C 162.800 312.689,163.223 313.600,165.400 313.600 C 167.605 313.600,168.000 312.713,168.000 307.757 L 168.000 303.159 169.351 302.594 C 171.322 301.771,171.894 299.552,170.469 298.262 C 169.572 297.450,150.832 297.276,149.400 298.066 M204.300 299.472 C 204.795 300.005,205.199 300.477,205.198 300.521 C 205.189 300.923,196.400 300.685,196.400 300.282 C 196.400 298.129,202.475 297.507,204.300 299.472 M250.174 298.390 C 251.009 298.708,251.200 299.044,251.200 300.200 C 251.200 302.030,250.292 302.400,245.798 302.400 C 243.955 302.400,242.351 302.555,242.234 302.745 C 242.116 302.935,241.284 303.091,240.385 303.091 C 238.304 303.091,237.932 303.490,237.693 305.976 C 237.458 308.420,236.555 308.736,236.195 306.500 C 236.062 305.675,235.871 304.595,235.769 304.100 C 235.619 303.365,235.761 303.200,236.546 303.200 C 237.137 303.200,237.767 302.804,238.181 302.173 C 238.684 301.405,238.983 301.254,239.367 301.573 C 239.982 302.083,241.175 302.145,243.600 301.795 C 246.367 301.394,246.740 301.225,245.900 300.753 C 243.353 299.323,247.133 297.234,250.174 298.390 M264.426 298.414 C 266.791 299.679,265.049 301.932,261.446 302.269 C 258.548 302.539,257.933 303.080,260.300 303.276 C 261.505 303.376,261.825 303.577,261.928 304.300 C 262.078 305.358,262.042 305.360,257.800 304.594 C 252.270 303.595,251.272 304.033,252.389 306.971 C 252.877 308.255,252.720 308.609,251.817 308.262 C 251.151 308.006,250.890 304.000,251.539 304.000 C 251.726 304.000,252.199 303.290,252.590 302.422 C 254.225 298.796,260.910 296.532,264.426 298.414 M167.900 299.096 C 166.635 299.175,164.565 299.175,163.300 299.096 C 162.035 299.016,163.070 298.951,165.600 298.951 C 168.130 298.951,169.165 299.016,167.900 299.096 M160.600 300.200 C 160.600 300.603,160.375 301.008,160.100 301.100 C 159.783 301.206,159.600 300.876,159.600 300.200 C 159.600 299.524,159.783 299.194,160.100 299.300 C 160.375 299.392,160.600 299.797,160.600 300.200 M150.325 302.219 C 150.742 302.358,150.721 302.577,150.225 303.286 C 148.499 305.750,150.694 309.315,153.503 308.610 L 154.532 308.352 153.266 307.582 C 150.440 305.863,151.979 303.200,155.800 303.200 C 159.368 303.200,159.661 303.630,159.515 308.648 L 159.400 312.600 154.840 312.714 C 148.306 312.877,145.464 310.664,145.445 305.400 C 145.431 301.630,146.491 300.939,150.325 302.219 M226.437 301.805 C 228.525 301.575,228.569 301.589,227.700 302.232 C 227.205 302.598,226.800 303.081,226.800 303.305 C 226.800 303.938,225.497 304.773,224.487 304.787 C 223.986 304.794,223.471 305.070,223.345 305.400 C 223.218 305.730,222.787 306.000,222.386 306.000 C 221.985 306.000,221.387 305.730,221.057 305.400 C 220.633 304.975,219.542 304.791,217.329 304.768 C 214.192 304.737,214.058 304.678,216.100 304.227 C 217.361 303.949,217.553 302.956,216.500 302.157 C 215.873 301.681,215.940 301.624,217.137 301.613 C 218.139 301.603,218.527 301.798,218.682 302.390 C 218.846 303.020,219.039 303.100,219.628 302.785 C 220.035 302.567,220.510 302.420,220.684 302.458 C 221.029 302.533,222.254 302.127,223.200 301.622 C 223.530 301.447,223.907 301.470,224.037 301.673 C 224.168 301.877,225.248 301.937,226.437 301.805 M235.139 301.554 C 236.081 302.151,235.500 303.402,234.289 303.384 C 233.690 303.376,233.173 303.556,233.139 303.784 C 233.106 304.013,233.036 304.380,232.985 304.600 C 232.934 304.820,232.872 305.225,232.846 305.500 C 232.821 305.775,232.617 306.000,232.394 306.000 C 232.170 306.000,232.028 305.467,232.078 304.815 C 232.136 304.050,231.855 303.297,231.284 302.689 C 230.798 302.172,230.400 301.625,230.400 301.474 C 230.400 301.079,234.498 301.148,235.139 301.554 M164.072 302.500 C 164.167 303.166,164.512 303.435,165.399 303.536 C 166.946 303.712,167.094 303.997,167.416 307.432 C 167.823 311.781,167.488 312.800,165.648 312.800 C 163.369 312.800,163.200 312.407,163.200 307.120 C 163.200 304.240,163.044 302.400,162.800 302.400 C 162.580 302.400,162.400 302.220,162.400 302.000 C 162.400 301.146,163.946 301.608,164.072 302.500 M208.375 302.353 C 208.980 303.483,208.820 310.436,208.168 311.367 C 207.745 311.971,207.588 312.015,207.445 311.569 C 207.119 310.560,206.739 302.423,206.997 302.005 C 207.381 301.383,207.930 301.522,208.375 302.353 M193.800 306.885 L 193.800 311.371 195.500 311.709 C 198.973 312.399,197.122 312.800,190.459 312.800 C 184.097 312.800,183.642 312.749,182.359 311.885 C 180.659 310.740,178.903 307.737,179.552 307.088 C 179.883 306.757,180.000 306.873,180.000 307.530 C 180.000 308.642,180.595 308.874,186.845 310.193 C 193.037 311.501,192.800 311.611,192.800 307.407 C 192.800 304.752,193.253 302.474,193.796 302.399 C 193.798 302.399,193.800 304.418,193.800 306.885 M201.669 303.062 C 202.933 304.207,202.576 304.800,200.624 304.800 C 198.496 304.800,197.930 304.148,199.181 303.135 C 200.300 302.229,200.734 302.216,201.669 303.062 M230.815 303.215 C 231.923 304.323,231.490 304.800,229.376 304.800 C 227.882 304.800,227.600 304.676,227.600 304.020 C 227.600 302.461,229.568 301.968,230.815 303.215 M151.600 305.649 C 151.600 307.425,151.520 307.632,151.000 307.200 C 150.399 306.701,150.166 304.368,150.667 303.867 C 151.321 303.213,151.600 303.746,151.600 305.649 M185.038 305.400 C 185.014 306.537,184.819 307.200,184.508 307.200 C 183.796 307.200,183.455 305.418,183.980 304.437 C 184.693 303.105,185.080 303.457,185.038 305.400 M204.088 304.300 C 204.342 305.278,204.036 306.000,203.367 306.000 C 202.739 306.000,202.700 305.814,203.052 304.500 C 203.340 303.425,203.836 303.329,204.088 304.300 M243.352 305.414 C 243.293 307.631,242.980 308.033,242.364 306.681 C 241.833 305.516,242.171 303.600,242.908 303.600 C 243.232 303.599,243.384 304.218,243.352 305.414 M213.600 305.600 C 213.600 306.040,213.439 306.400,213.243 306.400 C 212.793 306.400,212.374 305.360,212.694 305.039 C 213.176 304.558,213.600 304.820,213.600 305.600 M189.600 308.000 C 189.600 308.932,188.210 309.124,187.870 308.239 C 187.601 307.536,187.923 307.200,188.867 307.200 C 189.333 307.200,189.600 307.491,189.600 308.000 M248.000 307.813 C 248.000 308.648,246.922 308.999,246.199 308.399 C 245.423 307.755,245.804 307.200,247.024 307.200 C 247.634 307.200,248.000 307.430,248.000 307.813 M258.719 307.541 C 259.136 307.806,259.121 307.967,258.645 308.363 C 258.004 308.895,256.400 308.340,256.400 307.586 C 256.400 307.116,258.001 307.086,258.719 307.541 M219.601 308.500 C 220.249 309.300,220.466 309.349,221.550 308.941 C 223.374 308.253,223.969 309.141,222.858 310.893 L 222.030 312.200 221.564 310.865 C 221.129 309.622,221.005 309.548,219.743 309.784 C 218.306 310.054,217.674 309.427,218.145 308.200 C 218.458 307.384,218.745 307.443,219.601 308.500 M216.000 310.505 C 216.000 310.699,215.730 310.587,215.400 310.257 C 215.070 309.927,214.806 309.419,214.813 309.129 C 214.827 308.545,216.000 309.905,216.000 310.505 M233.000 309.933 C 233.000 310.657,232.217 310.525,232.062 309.775 C 231.975 309.358,232.125 309.175,232.462 309.287 C 232.758 309.386,233.000 309.677,233.000 309.933 M204.000 310.400 C 204.000 310.840,203.916 311.200,203.814 311.200 C 203.712 311.200,203.435 310.840,203.200 310.400 C 202.858 309.761,202.896 309.600,203.386 309.600 C 203.733 309.600,204.000 309.947,204.000 310.400 " stroke="none" fill="#a7a7a5" fill-rule="evenodd"></path><path id="path4" d="M205.462 154.183 C 205.296 154.615,205.471 154.800,206.046 154.800 C 206.502 154.800,206.796 154.589,206.708 154.325 C 206.461 153.584,205.724 153.500,205.462 154.183 M217.600 159.915 C 217.600 161.159,225.340 165.710,228.347 166.235 L 229.800 166.488 228.400 165.260 C 227.630 164.585,226.685 164.025,226.300 164.016 C 225.915 164.007,225.597 163.865,225.592 163.700 C 225.588 163.535,224.680 162.860,223.573 162.200 C 222.467 161.540,221.183 160.685,220.720 160.300 C 219.878 159.600,217.600 159.320,217.600 159.915 M204.000 167.600 C 203.487 167.931,203.502 167.989,204.100 167.994 C 204.487 167.997,204.813 168.313,204.828 168.700 C 204.852 169.294,204.905 169.279,205.178 168.600 C 205.698 167.307,205.161 166.850,204.000 167.600 M246.000 167.813 C 246.000 167.930,246.405 168.189,246.900 168.388 C 247.631 168.681,247.444 168.754,245.900 168.775 C 242.449 168.821,243.559 172.326,247.547 173.978 C 248.868 174.525,249.131 175.000,248.300 175.335 C 248.025 175.446,248.374 175.551,249.076 175.568 C 249.778 175.586,250.451 175.758,250.570 175.952 C 250.863 176.426,256.743 177.791,257.072 177.461 C 257.216 177.317,257.061 177.200,256.728 177.200 C 256.089 177.200,253.771 176.134,252.862 175.421 C 248.575 172.064,249.975 169.517,255.754 170.158 C 258.643 170.479,257.963 170.222,252.269 168.843 C 247.140 167.600,246.000 167.413,246.000 167.813 M206.832 169.300 C 206.853 169.901,206.939 170.001,207.092 169.600 C 207.217 169.270,207.518 168.868,207.760 168.706 C 208.031 168.525,207.932 168.410,207.500 168.406 C 207.030 168.402,206.810 168.695,206.832 169.300 M143.700 172.676 C 144.085 172.776,144.715 172.776,145.100 172.676 C 145.485 172.575,145.170 172.493,144.400 172.493 C 143.630 172.493,143.315 172.575,143.700 172.676 M138.505 173.487 C 139.114 173.579,140.014 173.577,140.505 173.482 C 140.997 173.387,140.500 173.311,139.400 173.314 C 138.300 173.317,137.897 173.395,138.505 173.487 M132.600 173.832 C 132.380 173.924,130.310 174.135,128.000 174.300 C 124.190 174.572,123.812 174.670,123.930 175.354 C 124.021 175.880,123.882 176.040,123.474 175.884 C 122.582 175.541,122.391 177.279,122.477 184.950 C 122.542 190.817,122.586 191.255,122.785 188.000 C 122.953 185.238,123.073 184.637,123.224 185.800 C 123.462 187.627,123.819 187.105,124.182 184.400 C 124.461 182.319,125.045 181.179,125.500 181.829 C 125.665 182.065,126.096 182.367,126.458 182.500 C 127.284 182.805,128.723 190.937,129.433 199.318 C 129.986 205.837,130.066 201.644,129.569 192.228 L 129.051 182.410 129.980 181.421 C 130.782 180.568,131.329 180.413,133.955 180.296 L 137.000 180.161 133.900 180.080 C 131.487 180.018,129.424 179.346,131.100 179.168 C 131.265 179.151,132.840 178.986,134.600 178.802 C 140.440 178.192,142.580 177.483,141.979 176.360 C 141.619 175.689,141.090 175.600,137.442 175.600 C 132.761 175.600,129.600 175.256,129.600 174.746 C 129.600 174.556,131.085 174.382,132.900 174.360 C 135.166 174.333,135.887 174.220,135.200 174.000 C 134.075 173.640,133.192 173.582,132.600 173.832 M282.500 174.276 C 282.885 174.376,283.515 174.376,283.900 174.276 C 284.285 174.175,283.970 174.093,283.200 174.093 C 282.430 174.093,282.115 174.175,282.500 174.276 M258.200 178.000 C 258.640 178.189,259.360 178.338,259.800 178.332 C 260.443 178.323,260.404 178.257,259.600 178.000 C 258.232 177.562,257.181 177.562,258.200 178.000 M275.900 180.682 C 276.395 180.778,277.205 180.778,277.700 180.682 C 278.195 180.587,277.790 180.509,276.800 180.509 C 275.810 180.509,275.405 180.587,275.900 180.682 M189.500 183.098 C 191.315 183.172,194.285 183.172,196.100 183.098 C 197.915 183.023,196.430 182.963,192.800 182.963 C 189.170 182.963,187.685 183.023,189.500 183.098 M215.119 183.098 C 216.944 183.172,219.824 183.172,221.519 183.097 C 223.214 183.022,221.720 182.961,218.200 182.962 C 214.680 182.962,213.294 183.024,215.119 183.098 M275.300 183.876 C 275.685 183.976,276.315 183.976,276.700 183.876 C 277.085 183.775,276.770 183.693,276.000 183.693 C 275.230 183.693,274.915 183.775,275.300 183.876 M195.645 192.181 C 196.000 192.631,196.490 193.360,196.733 193.800 C 196.977 194.240,197.181 194.378,197.188 194.106 C 197.195 193.835,196.705 193.106,196.100 192.487 C 195.495 191.868,195.290 191.730,195.645 192.181 M122.937 195.800 C 122.939 197.560,123.009 198.230,123.093 197.289 C 123.178 196.349,123.177 194.909,123.091 194.089 C 123.005 193.270,122.936 194.040,122.937 195.800 M281.737 196.200 C 281.739 197.960,281.809 198.630,281.893 197.689 C 281.978 196.749,281.977 195.309,281.891 194.489 C 281.805 193.670,281.736 194.440,281.737 196.200 M238.412 193.900 C 238.375 195.414,239.907 196.002,243.700 195.929 L 247.400 195.857 243.531 195.629 C 241.404 195.503,239.585 195.310,239.490 195.200 C 239.396 195.090,239.117 194.640,238.871 194.200 C 238.625 193.760,238.419 193.625,238.412 193.900 M132.124 197.800 C 132.126 199.120,132.201 199.612,132.290 198.893 C 132.379 198.174,132.377 197.094,132.286 196.493 C 132.195 195.892,132.122 196.480,132.124 197.800 M162.974 196.042 C 162.823 196.286,163.304 197.051,164.041 197.742 L 165.382 199.000 164.291 197.778 C 163.010 196.344,162.964 196.120,163.900 195.876 C 164.531 195.711,164.533 195.688,163.924 195.646 C 163.552 195.621,163.124 195.799,162.974 196.042 M184.100 195.894 C 185.145 195.976,186.855 195.976,187.900 195.894 C 188.945 195.812,188.090 195.744,186.000 195.744 C 183.910 195.744,183.055 195.812,184.100 195.894 M225.100 195.895 C 226.255 195.976,228.145 195.976,229.300 195.895 C 230.455 195.814,229.510 195.748,227.200 195.748 C 224.890 195.748,223.945 195.814,225.100 195.895 M221.600 196.255 C 221.600 196.468,222.275 197.263,223.100 198.022 L 224.600 199.400 223.200 197.804 C 222.430 196.927,221.755 196.132,221.700 196.038 C 221.645 195.944,221.600 196.041,221.600 196.255 M278.534 200.000 C 278.534 201.650,278.605 202.325,278.691 201.500 C 278.778 200.675,278.778 199.325,278.691 198.500 C 278.605 197.675,278.534 198.350,278.534 200.000 M168.651 201.600 C 169.339 202.370,170.000 203.270,170.119 203.600 C 170.308 204.119,170.341 204.116,170.368 203.578 C 170.386 203.237,169.725 202.337,168.900 201.578 L 167.400 200.200 168.651 201.600 M288.531 204.600 C 288.533 206.140,288.605 206.721,288.692 205.891 C 288.779 205.061,288.777 203.801,288.689 203.091 C 288.600 202.381,288.529 203.060,288.531 204.600 M130.124 205.800 C 130.126 207.120,130.201 207.612,130.290 206.893 C 130.379 206.174,130.377 205.094,130.286 204.493 C 130.195 203.892,130.122 204.480,130.124 205.800 M132.509 205.200 C 132.509 206.190,132.587 206.595,132.682 206.100 C 132.778 205.605,132.778 204.795,132.682 204.300 C 132.587 203.805,132.509 204.210,132.509 205.200 M250.500 204.294 C 251.545 204.376,253.255 204.376,254.300 204.294 C 255.345 204.212,254.490 204.144,252.400 204.144 C 250.310 204.144,249.455 204.212,250.500 204.294 M123.301 206.600 C 123.305 207.480,123.387 207.793,123.483 207.295 C 123.579 206.798,123.575 206.078,123.475 205.695 C 123.375 205.313,123.296 205.720,123.301 206.600 M281.309 207.200 C 281.309 208.190,281.387 208.595,281.482 208.100 C 281.578 207.605,281.578 206.795,281.482 206.300 C 281.387 205.805,281.309 206.210,281.309 207.200 M273.003 206.395 C 272.862 206.623,273.024 206.689,273.384 206.551 C 273.729 206.419,274.323 206.556,274.705 206.855 C 275.334 207.348,275.348 207.333,274.851 206.700 C 274.244 205.927,273.381 205.784,273.003 206.395 M278.093 209.200 C 278.093 209.970,278.175 210.285,278.276 209.900 C 278.376 209.515,278.376 208.885,278.276 208.500 C 278.175 208.115,278.093 208.430,278.093 209.200 M288.093 209.600 C 288.093 210.370,288.175 210.685,288.276 210.300 C 288.376 209.915,288.376 209.285,288.276 208.900 C 288.175 208.515,288.093 208.830,288.093 209.600 M133.796 209.607 C 133.658 209.830,133.377 209.909,133.172 209.783 C 132.968 209.656,132.800 209.733,132.800 209.953 C 132.800 210.727,133.445 210.739,133.923 209.974 C 134.189 209.548,134.326 209.200,134.227 209.200 C 134.128 209.200,133.934 209.383,133.796 209.607 M123.701 211.000 C 123.705 211.880,123.787 212.193,123.883 211.695 C 123.979 211.198,123.975 210.478,123.875 210.095 C 123.775 209.713,123.696 210.120,123.701 211.000 M141.600 209.725 C 141.600 209.794,142.185 210.379,142.900 211.025 L 144.200 212.200 143.025 210.900 C 141.930 209.688,141.600 209.416,141.600 209.725 M252.834 210.647 C 253.365 211.333,253.880 211.823,253.979 211.735 C 254.077 211.647,253.643 211.086,253.013 210.488 L 251.869 209.400 252.834 210.647 M130.493 211.200 C 130.493 211.970,130.575 212.285,130.676 211.900 C 130.776 211.515,130.776 210.885,130.676 210.500 C 130.575 210.115,130.493 210.430,130.493 211.200 M280.924 212.200 C 280.926 213.520,281.001 214.012,281.090 213.293 C 281.179 212.574,281.177 211.494,281.086 210.893 C 280.995 210.292,280.922 210.880,280.924 212.200 M156.956 212.171 C 156.835 212.485,156.804 213.160,156.886 213.671 C 156.995 214.354,157.088 214.204,157.237 213.100 C 157.447 211.547,157.336 211.181,156.956 212.171 M287.720 213.600 C 287.720 214.810,287.795 215.305,287.887 214.700 C 287.978 214.095,287.978 213.105,287.887 212.500 C 287.795 211.895,287.720 212.390,287.720 213.600 M130.893 214.800 C 130.893 215.570,130.975 215.885,131.076 215.500 C 131.176 215.115,131.176 214.485,131.076 214.100 C 130.975 213.715,130.893 214.030,130.893 214.800 M287.056 217.284 C 286.921 217.788,286.808 218.954,286.805 219.876 C 286.802 220.798,286.636 221.654,286.435 221.778 C 286.234 221.903,285.952 222.768,285.807 223.702 C 285.211 227.567,283.595 231.607,282.651 231.594 C 281.294 231.575,281.042 230.803,280.608 225.329 L 280.170 219.800 279.806 224.000 C 279.403 228.639,279.400 229.905,279.777 234.600 C 280.193 239.768,280.346 240.400,281.182 240.400 C 281.972 240.400,284.000 236.889,284.000 235.521 C 284.000 234.715,284.767 234.517,284.859 235.300 C 284.891 235.575,285.057 234.810,285.228 233.600 C 285.399 232.390,285.724 230.445,285.949 229.278 C 287.062 223.512,287.943 213.974,287.056 217.284 M280.501 218.200 C 280.505 219.080,280.587 219.393,280.683 218.895 C 280.779 218.398,280.775 217.678,280.675 217.295 C 280.575 216.913,280.496 217.320,280.501 218.200 M195.322 228.484 C 195.585 228.651,202.550 228.767,210.800 228.741 C 220.525 228.711,224.956 228.579,223.400 228.366 C 220.423 227.957,194.664 228.065,195.322 228.484 M186.305 228.683 C 186.802 228.779,187.522 228.775,187.905 228.675 C 188.287 228.575,187.880 228.496,187.000 228.501 C 186.120 228.505,185.807 228.587,186.305 228.683 M178.000 229.200 C 177.553 229.489,177.776 229.589,178.876 229.594 C 179.688 229.597,180.464 229.420,180.600 229.200 C 180.919 228.684,178.798 228.684,178.000 229.200 M228.800 229.200 C 228.800 229.420,229.745 229.597,230.900 229.594 C 232.403 229.589,232.830 229.478,232.400 229.200 C 231.608 228.688,228.800 228.688,228.800 229.200 M195.200 230.000 C 187.060 230.223,187.043 230.226,192.900 230.313 C 196.508 230.366,198.800 230.555,198.800 230.800 C 198.800 231.020,199.239 231.200,199.776 231.200 C 200.313 231.200,200.864 231.020,201.000 230.800 C 201.136 230.580,202.767 230.400,204.624 230.400 C 206.608 230.400,208.000 230.235,208.000 230.000 C 208.000 229.770,207.025 229.637,205.700 229.687 C 204.435 229.736,199.710 229.876,195.200 230.000 M233.200 229.720 C 233.200 229.786,234.176 230.848,235.369 232.079 C 237.657 234.442,239.697 237.602,238.162 236.407 C 237.743 236.080,236.440 234.955,235.268 233.907 C 234.095 232.858,232.801 232.000,232.391 232.000 C 231.982 232.000,231.536 231.820,231.400 231.600 C 231.264 231.380,230.668 231.214,230.076 231.232 L 229.000 231.263 230.200 231.691 C 232.101 232.369,234.537 234.191,236.607 236.484 C 237.657 237.648,238.664 238.557,238.844 238.505 C 239.024 238.452,239.079 238.649,238.967 238.941 C 238.855 239.233,239.087 239.726,239.482 240.036 C 240.137 240.550,240.152 240.538,239.651 239.900 C 238.890 238.930,239.710 239.017,240.600 240.000 C 241.352 240.831,242.400 241.078,242.400 240.424 C 242.400 240.217,242.220 239.936,242.000 239.800 C 241.780 239.664,241.605 239.248,241.611 238.876 C 241.619 238.369,241.893 238.503,242.711 239.416 C 243.310 240.084,243.629 240.354,243.419 240.016 C 242.407 238.380,241.451 237.593,241.089 238.096 C 240.833 238.449,240.792 238.391,240.950 237.899 C 241.296 236.824,234.758 229.600,233.438 229.600 C 233.307 229.600,233.200 229.654,233.200 229.720 M224.433 230.543 C 224.857 230.907,227.600 231.108,227.600 230.775 C 227.600 230.569,226.850 230.400,225.933 230.400 C 225.017 230.400,224.342 230.465,224.433 230.543 M172.558 232.902 C 170.846 234.790,168.347 237.750,166.441 240.148 C 165.765 240.999,165.327 241.882,165.468 242.109 C 165.609 242.339,165.531 242.405,165.292 242.257 C 165.055 242.111,164.453 242.578,163.955 243.295 L 163.049 244.600 163.978 243.800 L 164.906 243.000 164.642 243.850 C 164.438 244.506,164.576 244.753,165.242 244.927 C 165.908 245.101,166.054 245.364,165.881 246.076 C 165.659 246.990,165.664 246.990,166.328 246.010 C 168.152 243.324,169.533 241.754,170.468 241.302 C 171.036 241.028,172.194 239.948,173.042 238.902 L 174.584 237.000 172.449 238.900 C 169.222 241.771,169.032 241.173,171.965 237.379 C 172.750 236.366,170.536 238.648,169.303 240.125 C 167.622 242.138,166.974 241.159,168.523 238.948 C 171.496 234.703,172.277 233.686,173.333 232.688 C 173.980 232.077,174.421 231.488,174.313 231.380 C 174.205 231.272,173.416 231.957,172.558 232.902 M189.911 231.493 C 190.851 231.578,192.291 231.577,193.111 231.491 C 193.930 231.405,193.160 231.336,191.400 231.337 C 189.640 231.339,188.970 231.409,189.911 231.493 M175.728 233.500 C 174.862 234.325,174.613 234.623,175.176 234.161 C 175.739 233.700,176.645 233.025,177.189 232.661 C 177.733 232.298,177.981 232.000,177.740 232.000 C 177.500 232.000,176.594 232.675,175.728 233.500 M278.909 233.600 C 278.909 234.590,278.987 234.995,279.082 234.500 C 279.178 234.005,279.178 233.195,279.082 232.700 C 278.987 232.205,278.909 232.610,278.909 233.600 M175.775 235.700 L 174.600 237.000 175.900 235.825 C 177.112 234.730,177.384 234.400,177.075 234.400 C 177.006 234.400,176.421 234.985,175.775 235.700 M278.093 238.000 C 278.093 238.770,278.175 239.085,278.276 238.700 C 278.376 238.315,278.376 237.685,278.276 237.300 C 278.175 236.915,278.093 237.230,278.093 238.000 M277.309 242.800 C 277.309 243.790,277.387 244.195,277.482 243.700 C 277.578 243.205,277.578 242.395,277.482 241.900 C 277.387 241.405,277.309 241.810,277.309 242.800 M246.391 244.388 C 246.857 245.041,247.442 245.702,247.691 245.856 C 247.941 246.011,247.641 245.476,247.025 244.668 C 245.688 242.915,245.184 242.692,246.391 244.388 M278.262 245.131 C 277.898 245.534,277.589 246.209,277.575 246.631 C 277.554 247.267,277.471 247.227,277.095 246.400 C 276.645 245.409,276.640 245.413,276.508 246.800 C 276.435 247.570,276.209 248.560,276.005 249.000 C 275.802 249.440,275.351 251.060,275.003 252.600 C 273.568 258.956,272.239 263.756,270.684 268.200 C 270.145 269.740,269.480 271.810,269.206 272.800 C 268.931 273.790,268.531 275.084,268.315 275.676 C 267.805 277.076,268.278 277.911,269.023 276.924 C 269.508 276.282,269.552 276.393,269.412 277.900 C 269.156 280.657,270.450 281.036,272.524 278.813 C 273.726 277.525,274.185 277.249,274.446 277.660 C 274.696 278.055,274.789 277.964,274.794 277.324 C 274.797 276.842,274.964 276.346,275.165 276.222 C 276.026 275.689,279.586 262.507,279.628 259.695 C 279.646 258.465,279.759 258.060,279.948 258.542 C 280.238 259.280,280.473 255.372,280.526 248.933 C 280.560 244.820,279.760 243.476,278.262 245.131 M265.152 246.887 C 265.337 247.998,265.393 248.055,265.519 247.254 C 265.601 246.733,265.503 246.143,265.301 245.941 C 265.079 245.719,265.021 246.093,265.152 246.887 M254.786 248.221 C 253.584 249.443,252.870 250.322,253.200 250.174 C 253.786 249.912,257.480 246.000,257.143 246.000 C 257.049 246.000,255.989 247.000,254.786 248.221 M155.000 248.400 C 156.083 249.500,157.060 250.400,157.170 250.400 C 157.280 250.400,156.483 249.500,155.400 248.400 C 154.317 247.300,153.340 246.400,153.230 246.400 C 153.120 246.400,153.917 247.300,155.000 248.400 M248.500 247.301 C 249.437 248.735,249.383 249.001,248.349 248.038 C 247.436 247.188,246.841 247.445,246.278 248.933 C 245.987 249.701,246.877 251.389,247.333 250.933 C 247.754 250.513,249.250 252.094,249.014 252.709 C 248.809 253.243,251.894 253.265,254.572 252.749 C 255.125 252.642,255.416 252.884,255.595 253.600 C 255.844 254.595,255.846 254.596,256.085 253.700 C 256.259 253.049,256.623 252.800,257.401 252.800 C 259.535 252.800,262.650 251.601,263.834 250.324 L 265.000 249.066 263.370 250.344 C 261.567 251.757,259.208 251.678,256.056 250.100 L 254.711 249.426 253.561 250.713 C 252.248 252.183,251.410 252.340,250.814 251.226 C 250.264 250.199,250.292 249.888,250.900 250.253 C 251.244 250.460,251.230 250.344,250.855 249.881 C 250.555 249.511,250.105 249.326,249.855 249.469 C 249.605 249.611,249.528 249.587,249.684 249.413 C 250.018 249.043,249.030 246.989,248.303 246.541 C 248.026 246.370,248.115 246.713,248.500 247.301 M244.784 247.923 C 245.281 248.651,245.793 249.140,245.922 249.011 C 246.052 248.882,245.645 248.286,245.019 247.688 L 243.880 246.600 244.784 247.923 M153.574 253.176 C 154.064 253.486,154.068 253.646,153.596 254.270 C 153.076 254.957,153.087 254.961,153.769 254.338 C 154.507 253.665,154.341 252.795,153.476 252.806 C 153.177 252.810,153.214 252.948,153.574 253.176 M219.505 257.083 C 220.002 257.179,220.722 257.175,221.105 257.075 C 221.487 256.975,221.080 256.896,220.200 256.901 C 219.320 256.905,219.007 256.987,219.505 257.083 M193.500 257.482 C 193.995 257.578,194.805 257.578,195.300 257.482 C 195.795 257.387,195.390 257.309,194.400 257.309 C 193.410 257.309,193.005 257.387,193.500 257.482 M203.900 257.489 C 204.615 257.578,205.785 257.578,206.500 257.489 C 207.215 257.401,206.630 257.328,205.200 257.328 C 203.770 257.328,203.185 257.401,203.900 257.489 M214.300 257.482 C 214.795 257.578,215.605 257.578,216.100 257.482 C 216.595 257.387,216.190 257.309,215.200 257.309 C 214.210 257.309,213.805 257.387,214.300 257.482 M276.851 261.064 C 277.518 261.871,277.499 269.461,276.828 270.132 C 276.593 270.367,276.400 270.912,276.400 271.342 C 276.400 272.261,274.697 274.613,273.610 275.195 C 271.700 276.217,269.448 273.258,270.317 270.871 C 270.532 270.282,270.937 269.035,271.218 268.100 C 271.498 267.165,271.879 266.400,272.064 266.400 C 272.249 266.400,272.400 265.776,272.400 265.013 C 272.400 263.944,272.538 263.678,273.000 263.855 C 273.330 263.982,273.600 263.877,273.600 263.621 C 273.600 263.104,275.657 260.400,276.051 260.400 C 276.189 260.400,276.549 260.699,276.851 261.064 M266.400 260.925 C 266.400 260.994,266.985 261.579,267.700 262.225 L 269.000 263.400 267.825 262.100 C 266.730 260.888,266.400 260.616,266.400 260.925 M269.272 265.650 C 269.232 266.447,269.105 267.707,268.989 268.450 C 268.797 269.685,268.815 269.716,269.208 268.815 C 269.444 268.274,269.571 267.014,269.491 266.015 C 269.362 264.418,269.336 264.375,269.272 265.650 M149.334 266.227 C 149.202 266.572,149.288 267.048,149.525 267.285 C 149.832 267.592,149.894 267.481,149.741 266.894 C 149.590 266.319,149.747 266.016,150.263 265.883 C 150.943 265.707,150.945 265.689,150.287 265.646 C 149.896 265.621,149.467 265.882,149.334 266.227 M259.139 266.292 C 260.231 266.426,260.441 266.599,260.277 267.229 C 260.165 267.654,260.238 267.900,260.437 267.777 C 261.509 267.114,260.770 266.001,259.300 266.064 L 257.800 266.128 259.139 266.292 M256.417 272.185 L 254.233 274.600 256.598 272.314 C 257.898 271.057,258.881 269.971,258.781 269.900 C 258.682 269.829,257.617 270.857,256.417 272.185 M268.200 270.800 C 268.050 271.273,268.017 271.750,268.127 271.860 C 268.237 271.970,268.450 271.673,268.600 271.200 C 268.750 270.727,268.783 270.250,268.673 270.140 C 268.563 270.030,268.350 270.327,268.200 270.800 M265.478 277.005 C 265.112 277.772,264.895 278.400,264.996 278.400 C 265.270 278.400,266.484 275.951,266.301 275.768 C 266.214 275.681,265.844 276.238,265.478 277.005 M267.479 278.157 C 267.315 278.574,267.275 279.009,267.391 279.124 C 267.755 279.489,268.076 278.891,267.924 278.131 C 267.783 277.435,267.762 277.436,267.479 278.157 M144.819 279.000 C 144.812 279.800,145.574 281.356,145.603 280.600 C 145.611 280.380,145.985 280.650,146.433 281.200 L 147.248 282.200 146.655 281.000 C 146.328 280.340,145.783 279.440,145.443 279.000 L 144.825 278.200 144.819 279.000 M185.300 280.276 C 185.685 280.376,186.315 280.376,186.700 280.276 C 187.085 280.175,186.770 280.093,186.000 280.093 C 185.230 280.093,184.915 280.175,185.300 280.276 M224.100 280.276 C 224.485 280.376,225.115 280.376,225.500 280.276 C 225.885 280.175,225.570 280.093,224.800 280.093 C 224.030 280.093,223.715 280.175,224.100 280.276 M188.100 280.676 C 188.485 280.776,189.115 280.776,189.500 280.676 C 189.885 280.575,189.570 280.493,188.800 280.493 C 188.030 280.493,187.715 280.575,188.100 280.676 M198.500 282.276 C 198.885 282.376,199.515 282.376,199.900 282.276 C 200.285 282.175,199.970 282.093,199.200 282.093 C 198.430 282.093,198.115 282.175,198.500 282.276 M210.900 282.276 C 211.285 282.376,211.915 282.376,212.300 282.276 C 212.685 282.175,212.370 282.093,211.600 282.093 C 210.830 282.093,210.515 282.175,210.900 282.276 M203.911 282.693 C 204.851 282.778,206.291 282.777,207.111 282.691 C 207.930 282.605,207.160 282.536,205.400 282.537 C 203.640 282.539,202.970 282.609,203.911 282.693 M265.030 284.667 C 264.889 285.034,264.960 285.520,265.187 285.747 C 265.471 286.031,265.600 285.823,265.600 285.080 C 265.600 283.846,265.400 283.701,265.030 284.667 M260.600 286.000 C 260.259 286.660,260.069 287.200,260.179 287.200 C 260.289 287.200,260.659 286.660,261.000 286.000 C 261.341 285.340,261.531 284.800,261.421 284.800 C 261.311 284.800,260.941 285.340,260.600 286.000 M266.405 286.078 C 265.576 287.201,265.409 287.276,265.043 286.696 C 264.702 286.155,264.277 286.769,262.713 290.063 C 259.991 295.797,260.143 296.219,264.821 295.898 C 266.950 295.751,266.938 295.746,264.287 295.674 C 262.216 295.617,261.517 295.449,261.329 294.959 C 261.075 294.298,262.812 290.360,263.241 290.625 C 263.373 290.707,264.176 290.420,265.025 289.987 C 267.464 288.744,269.487 289.757,269.037 291.996 C 268.926 292.548,269.209 292.201,269.666 291.224 C 270.316 289.833,270.400 289.291,270.048 288.729 C 269.802 288.334,269.600 287.504,269.600 286.885 C 269.600 284.563,267.852 284.121,266.405 286.078 M228.287 288.668 C 223.878 293.509,223.053 293.219,240.949 293.105 L 255.800 293.010 241.015 292.900 C 232.486 292.837,226.071 292.631,225.854 292.414 C 225.620 292.180,226.383 291.166,227.882 289.719 C 229.913 287.759,232.048 285.140,231.546 285.224 C 231.466 285.238,229.999 286.787,228.287 288.668 M258.253 290.100 L 257.533 291.400 258.358 290.400 C 259.089 289.513,259.414 288.800,259.086 288.800 C 259.024 288.800,258.649 289.385,258.253 290.100 M162.300 293.099 C 166.315 293.165,172.885 293.165,176.900 293.099 C 180.915 293.034,177.630 292.981,169.600 292.981 C 161.570 292.981,158.285 293.034,162.300 293.099 M246.100 298.412 C 245.025 298.844,244.910 300.197,245.900 300.753 C 246.740 301.225,246.367 301.394,243.600 301.795 C 241.175 302.145,239.982 302.083,239.367 301.573 C 238.983 301.254,238.684 301.405,238.181 302.173 C 237.767 302.804,237.137 303.200,236.546 303.200 C 235.761 303.200,235.619 303.365,235.769 304.100 C 235.871 304.595,236.062 305.675,236.195 306.500 C 236.411 307.846,237.600 308.757,237.600 307.576 C 237.600 307.343,237.440 307.251,237.245 307.372 C 236.856 307.613,236.414 306.312,236.405 304.900 C 236.400 303.965,237.579 303.579,237.625 304.500 C 237.639 304.775,237.813 304.595,238.012 304.100 C 238.363 303.228,239.137 302.987,241.070 303.148 C 241.548 303.188,242.054 303.036,242.194 302.810 C 242.334 302.583,243.939 302.400,245.798 302.400 C 249.346 302.400,251.220 301.950,251.168 301.110 C 251.144 300.709,251.094 300.707,250.935 301.100 C 250.600 301.930,248.999 301.663,248.011 300.612 L 247.084 299.624 248.168 299.212 C 249.624 298.659,250.690 298.692,250.935 299.300 C 251.094 299.693,251.144 299.691,251.168 299.290 C 251.235 298.220,247.980 297.657,246.100 298.412 M259.511 298.293 C 260.451 298.378,261.891 298.377,262.711 298.291 C 263.530 298.205,262.760 298.136,261.000 298.137 C 259.240 298.139,258.570 298.209,259.511 298.293 M264.727 299.686 C 264.858 300.579,264.703 301.082,264.179 301.465 C 263.776 301.759,263.625 302.000,263.844 302.000 C 264.932 302.000,265.788 299.210,264.872 298.645 C 264.692 298.533,264.627 299.002,264.727 299.686 M159.600 300.200 C 159.600 300.876,159.783 301.206,160.100 301.100 C 160.375 301.008,160.600 300.603,160.600 300.200 C 160.600 299.797,160.375 299.392,160.100 299.300 C 159.783 299.194,159.600 299.524,159.600 300.200 M146.221 302.224 C 145.420 303.447,145.408 304.052,146.208 302.910 C 146.783 302.089,146.910 302.071,148.608 302.582 C 150.168 303.052,151.791 302.708,150.325 302.219 C 147.471 301.266,146.848 301.267,146.221 302.224 M223.200 301.622 C 222.254 302.127,221.029 302.533,220.684 302.458 C 220.510 302.420,220.035 302.567,219.628 302.785 C 219.039 303.100,218.846 303.020,218.682 302.390 C 218.527 301.798,218.139 301.603,217.137 301.613 C 215.940 301.624,215.873 301.681,216.500 302.157 C 217.553 302.956,217.361 303.949,216.100 304.227 C 214.058 304.678,214.192 304.737,217.329 304.768 C 219.542 304.791,220.633 304.975,221.057 305.400 C 221.387 305.730,221.985 306.000,222.386 306.000 C 222.787 306.000,223.218 305.730,223.345 305.400 C 223.471 305.070,223.986 304.794,224.487 304.787 C 225.497 304.773,226.800 303.938,226.800 303.305 C 226.800 303.081,227.205 302.598,227.700 302.232 C 228.569 301.589,228.525 301.575,226.437 301.805 C 225.248 301.937,224.168 301.877,224.037 301.673 C 223.907 301.470,223.530 301.447,223.200 301.622 M230.400 301.474 C 230.400 301.625,230.798 302.172,231.284 302.689 C 231.855 303.297,232.136 304.050,232.078 304.815 C 232.028 305.467,232.170 306.000,232.394 306.000 C 232.617 306.000,232.821 305.775,232.846 305.500 C 232.872 305.225,232.934 304.820,232.985 304.600 C 233.036 304.380,233.106 304.013,233.139 303.784 C 233.173 303.556,233.690 303.376,234.289 303.384 C 235.500 303.402,236.081 302.151,235.139 301.554 C 234.498 301.148,230.400 301.079,230.400 301.474 M206.962 302.154 C 206.845 302.459,206.819 303.494,206.905 304.454 L 207.060 306.200 207.130 304.300 C 207.203 302.328,207.834 301.730,208.187 303.300 C 208.298 303.795,208.347 305.758,208.294 307.662 C 208.242 309.566,208.317 311.051,208.461 310.962 C 208.885 310.700,208.806 303.159,208.371 302.345 C 207.899 301.464,207.260 301.378,206.962 302.154 M218.400 303.000 C 218.400 303.550,218.241 304.000,218.047 304.000 C 217.852 304.000,217.607 303.550,217.502 303.000 C 217.374 302.329,217.490 302.000,217.855 302.000 C 218.170 302.000,218.400 302.423,218.400 303.000 M259.900 302.282 C 260.395 302.378,261.205 302.378,261.700 302.282 C 262.195 302.187,261.790 302.109,260.800 302.109 C 259.810 302.109,259.405 302.187,259.900 302.282 M193.257 303.257 C 192.975 303.709,192.832 304.166,192.940 304.273 C 193.047 304.381,193.344 304.078,193.600 303.600 C 194.205 302.470,193.924 302.190,193.257 303.257 M223.200 303.167 C 223.200 304.359,222.769 305.200,222.157 305.200 C 221.585 305.200,221.353 303.180,221.867 302.667 C 222.408 302.126,223.200 302.423,223.200 303.167 M252.188 303.238 C 252.055 303.657,251.778 304.000,251.573 304.000 C 250.900 304.000,251.129 307.998,251.817 308.262 C 252.157 308.392,252.510 308.424,252.601 308.332 C 252.918 308.015,252.308 306.409,251.955 306.628 C 251.405 306.967,251.561 305.485,252.157 304.700 C 252.797 303.856,253.631 303.841,257.800 304.594 C 262.042 305.360,262.078 305.358,261.928 304.300 C 261.828 303.595,261.498 303.371,260.403 303.267 C 259.635 303.195,258.880 302.930,258.725 302.679 C 258.570 302.428,258.314 302.353,258.155 302.512 C 257.741 302.926,258.173 303.244,259.680 303.635 C 260.664 303.891,260.228 303.946,257.971 303.854 C 256.268 303.784,254.392 303.455,253.686 303.103 C 252.505 302.513,252.415 302.522,252.188 303.238 M163.324 305.000 C 163.326 306.320,163.401 306.812,163.490 306.093 C 163.579 305.374,163.577 304.294,163.486 303.693 C 163.395 303.092,163.322 303.680,163.324 305.000 M152.662 303.931 C 151.797 304.887,151.816 306.563,152.700 307.232 C 153.296 307.682,153.325 307.678,152.900 307.201 C 152.265 306.488,152.253 304.707,152.880 304.080 C 154.071 302.889,159.167 303.719,159.232 305.114 C 159.252 305.568,159.334 305.623,159.473 305.277 C 160.224 303.401,154.216 302.214,152.662 303.931 M164.000 303.825 C 164.000 304.092,164.617 304.427,165.371 304.568 C 166.125 304.710,166.831 305.045,166.939 305.313 C 167.068 305.629,167.146 305.590,167.162 305.200 C 167.205 304.203,166.667 303.720,165.300 303.525 C 164.444 303.402,164.000 303.505,164.000 303.825 M212.694 305.039 C 212.374 305.360,212.793 306.400,213.243 306.400 C 213.439 306.400,213.600 306.040,213.600 305.600 C 213.600 304.820,213.176 304.558,212.694 305.039 M179.468 307.090 C 179.085 307.709,180.434 310.363,181.657 311.397 L 182.600 312.194 181.632 311.099 C 180.332 309.628,180.778 309.353,183.535 309.922 C 187.248 310.689,187.293 310.427,183.613 309.476 C 180.660 308.712,180.196 308.472,179.996 307.604 C 179.846 306.955,179.662 306.776,179.468 307.090 M167.324 309.400 C 167.326 310.720,167.401 311.212,167.490 310.493 C 167.579 309.774,167.577 308.694,167.486 308.093 C 167.395 307.492,167.322 308.080,167.324 309.400 M187.894 307.439 C 187.556 307.778,188.005 308.800,188.492 308.800 C 188.738 308.800,188.715 308.580,188.432 308.239 C 188.075 307.808,188.087 307.630,188.483 307.470 C 188.767 307.356,188.805 307.249,188.567 307.232 C 188.328 307.214,188.026 307.308,187.894 307.439 M245.860 307.503 C 245.509 308.071,246.662 308.938,247.395 308.657 C 248.057 308.403,248.237 307.200,247.613 307.200 C 247.399 307.200,247.329 307.470,247.455 307.800 C 247.766 308.611,246.933 308.567,246.475 307.749 C 246.258 307.360,246.009 307.261,245.860 307.503 M257.771 308.000 C 257.771 308.936,258.118 309.022,258.761 308.247 C 259.155 307.772,258.658 307.200,257.853 307.200 C 257.808 307.200,257.771 307.560,257.771 308.000 M153.945 307.921 C 154.406 308.244,154.406 308.337,153.945 308.520 C 153.578 308.666,153.640 308.747,154.133 308.768 C 154.972 308.805,154.843 307.929,153.975 307.695 C 153.500 307.566,153.495 307.605,153.945 307.921 M218.145 308.200 C 217.680 309.412,218.314 310.082,219.650 309.789 C 220.513 309.599,221.006 309.682,221.244 310.057 C 221.497 310.457,221.589 310.468,221.594 310.100 C 221.597 309.825,221.889 309.600,222.243 309.600 C 222.665 309.600,222.802 309.818,222.643 310.233 C 222.509 310.581,222.400 310.951,222.400 311.056 C 222.400 311.161,222.220 311.136,222.000 311.000 C 221.780 310.864,221.600 310.933,221.600 311.153 C 221.600 312.076,222.302 311.873,222.960 310.760 C 223.937 309.106,223.298 308.282,221.550 308.941 C 220.466 309.349,220.249 309.300,219.601 308.500 C 218.745 307.443,218.458 307.384,218.145 308.200 M214.813 309.129 C 214.806 309.419,215.070 309.927,215.400 310.257 C 216.171 311.028,216.180 310.391,215.413 309.376 C 215.044 308.889,214.821 308.797,214.813 309.129 M232.062 309.775 C 232.138 310.142,232.380 310.433,232.600 310.421 C 233.194 310.390,233.085 309.495,232.462 309.287 C 232.125 309.175,231.975 309.358,232.062 309.775 " stroke="none" fill="#939493" fill-rule="evenodd"></path></g></svg>